<svg xmlns="http://www.w3.org/2000/svg" xmlns:xlink="http://www.w3.org/1999/xlink" viewBox="0 0 146.29 98.39"><defs><style>.cls-1{fill:url(#linear-gradient);}.cls-2{fill:url(#linear-gradient-2);}.cls-3{fill:url(#linear-gradient-3);}.cls-4{fill:url(#linear-gradient-4);}.cls-5{fill:url(#linear-gradient-5);}.cls-6{fill:url(#linear-gradient-6);}.cls-7{fill:url(#linear-gradient-7);}.cls-8{fill:url(#radial-gradient);}.cls-9{fill:url(#linear-gradient-8);}.cls-10{fill:url(#linear-gradient-9);}.cls-11{fill:url(#linear-gradient-10);}.cls-12{fill:#fff;}.cls-13{fill:url(#linear-gradient-11);}.cls-14{fill:#fcffab;}.cls-15{fill:url(#linear-gradient-12);}</style><linearGradient id="linear-gradient" x1="121.52" y1="49.76" x2="128.53" y2="49.76" gradientUnits="userSpaceOnUse"><stop offset="0" stop-color="#f5b104"/><stop offset="1" stop-color="#fcc44c"/></linearGradient><linearGradient id="linear-gradient-2" x1="84.93" y1="93.76" x2="84.15" y2="74.82" gradientUnits="userSpaceOnUse"><stop offset="0" stop-color="#e6a500"/><stop offset="1" stop-color="#fcce6c"/></linearGradient><linearGradient id="linear-gradient-3" x1="104.58" y1="27.71" x2="103.02" y2="9.29" gradientUnits="userSpaceOnUse"><stop offset="0" stop-color="#f5b000"/><stop offset="1" stop-color="#fcce6c"/></linearGradient><linearGradient id="linear-gradient-4" x1="63.94" y1="91.49" x2="56.93" y2="60.1" gradientUnits="userSpaceOnUse"><stop offset="0" stop-color="#e8a700"/><stop offset="1" stop-color="#fcce6c"/></linearGradient><linearGradient id="linear-gradient-5" x1="62.05" y1="96.6" x2="59.26" y2="84.11" gradientUnits="userSpaceOnUse"><stop offset="0" stop-color="#e8a700"/><stop offset="0.73" stop-color="#e8a700"/></linearGradient><linearGradient id="linear-gradient-6" x1="50.69" y1="45.92" x2="40.06" y2="16.08" xlink:href="#linear-gradient-3"/><linearGradient id="linear-gradient-7" x1="84" y1="39.03" x2="125.33" y2="39.03" gradientUnits="userSpaceOnUse"><stop offset="0" stop-color="#e8a700"/><stop offset="1" stop-color="#e8a700"/></linearGradient><radialGradient id="radial-gradient" cx="113.08" cy="40.33" r="18.59" gradientUnits="userSpaceOnUse"><stop offset="0" stop-color="#507024"/><stop offset="0.27" stop-color="#5d832a"/><stop offset="0.8" stop-color="#7fb339"/><stop offset="1" stop-color="#8cc63f"/></radialGradient><linearGradient id="linear-gradient-8" x1="115.09" y1="47.88" x2="100.28" y2="26.3" gradientUnits="userSpaceOnUse"><stop offset="0" stop-color="#6d9931"/><stop offset="1" stop-color="#577a27"/></linearGradient><linearGradient id="linear-gradient-9" x1="123.49" y1="29.93" x2="125.86" y2="34.09" gradientUnits="userSpaceOnUse"><stop offset="0" stop-color="#8cc63f"/><stop offset="1" stop-color="#67912e"/></linearGradient><linearGradient id="linear-gradient-10" x1="91.83" y1="9.71" x2="8.98" y2="46.36" gradientUnits="userSpaceOnUse"><stop offset="0" stop-color="#ffd04f"/><stop offset="0.23" stop-color="#fdec7d"/><stop offset="1" stop-color="#ffd04f"/></linearGradient><linearGradient id="linear-gradient-11" x1="138.35" y1="21.24" x2="140.68" y2="25.3" gradientUnits="userSpaceOnUse"><stop offset="0.41" stop-color="#577a27"/><stop offset="1" stop-color="#577a27"/></linearGradient><linearGradient id="linear-gradient-12" x1="47.71" y1="71.61" x2="129.02" y2="32.86" xlink:href="#linear-gradient-10"/></defs><g id="Layer_2" data-name="Layer 2"><g id="Layer_1-2" data-name="Layer 1"><path class="cls-1" d="M129.06,33.11a19.5,19.5,0,0,1,2.15,12.63c-1.29,7.06-1.07,9.63.42,11.13s1.83,4.76-.92,7.5-10.85,1.92-10.85,1.92l-4.49-15.63s-2.36-7.92-2.36-9S129.06,33.11,129.06,33.11Z"/><path class="cls-2" d="M37.67,89.62s16.7,8.77,40.67,8.77,50.94-9.84,52.44-34.89c0,0-1.29-11.55-15.41-8.34L87.54,63.08Z"/><path class="cls-3" d="M123.71,31.82s.86-19.26-10.06-26.53-26.75-5.78-30,.64L100.6,30.54s9.63,6,10.49,6S123.71,31.82,123.71,31.82Z"/><path class="cls-4" d="M6.64,71.42S2.35,77.2,4.5,81.7s6,13,14.55,13S42,90.9,49.87,92.83s33,6,48.37-2.79,15.41-22.68,15.41-30.18S110.34,46.49,109,45.1,94.39,33.33,92.47,33.33s-35.11-2.57-43-.43S6.64,71.42,6.64,71.42Z"/><path class="cls-5" d="M104.18,81.22c-17.73,10.09-46.54,5.41-55.65,3.2s-25.6,2.21-35.45,2.21a13.18,13.18,0,0,1-7.19-2.09c2.34,4.54,6.19,10.21,13.16,10.21,8.56,0,22.9-3.85,30.82-1.92s33,6,48.37-2.79c6.84-3.89,10.65-8.8,12.76-13.71A38.9,38.9,0,0,1,104.18,81.22Z"/><path class="cls-6" d="M101,23.91S93.32-6.91,65.07,1.43,27.72,32.15,23.76,36.11,0,50.23,0,61.58,2.78,74,8.78,74s27-18.41,37.88-18.41S95,46.81,97.82,38.67A63,63,0,0,0,101,23.91Z"/><path class="cls-7" d="M104.07,6.38s-6.29,1.83-7.48,11.15-.65,17.58-5.37,19A23.56,23.56,0,0,0,84,40s10.43,1.12,14.69,5.38,11.94,12.07,11.94,14.82,2.23,11.53,2.23,11.53,2.36-14.15,12.47-10.22c0,0-6.7-5-5.78-10a6,6,0,0,1,5.25-5.24s-7-5.63-7.61-8.79-.26-9,2.49-10.76c0,0-6.29,3.94-9.31-2.75s-7-7.87-7-7.87S98.3,12.15,104.07,6.38Z"/><path class="cls-8" d="M105.14,9.23s-5.73,1.67-6.8,10.15-.6,16-4.9,17.31a21.55,21.55,0,0,0-6.56,3.1s9.49,1,13.37,4.9,10.86,11,10.86,13.49,2,10.49,2,10.49,2.15-12.88,11.34-9.3c0,0-6.08-4.54-5.25-9.07A5.46,5.46,0,0,1,124,45.52s-6.36-5.12-6.92-8-.24-8.24,2.27-9.79c0,0-5.73,3.58-8.48-2.5s-6.32-7.17-6.32-7.17S99.89,14.48,105.14,9.23Z"/><path class="cls-9" d="M119.11,44.88a31.2,31.2,0,0,1-2.4-2.7,9.82,9.82,0,0,1-2-4,18,18,0,0,1-.3-3.39,19.75,19.75,0,0,1,.18-2.73,8.29,8.29,0,0,1-2.23-1,9.87,9.87,0,0,1-3.6-4.38c-1.76-3.86-3.62-4.91-4.09-5.17v0l-.63-.19-.53-.4c-.08-.07-.26-.21-.5-.43-.33,2.8-.51,5.57-.8,8.14a20.82,20.82,0,0,1-2,7.76,8,8,0,0,1-1.81,2.24,17.18,17.18,0,0,1,5.6,3.49c3,3,7.63,7.64,10.16,11.43a8.87,8.87,0,0,1,1.73,4.24l.28-.26a9.88,9.88,0,0,1,2-1.32,10.65,10.65,0,0,1-1.4-5,8.11,8.11,0,0,1,.13-1.53A9.76,9.76,0,0,1,119.11,44.88Z"/><path class="cls-10" d="M108.73,34.18s13.73-.12,25.78-19l11.34,16.11s-21.69,15.41-34.14,14C111.71,45.28,106,42,108.73,34.18Z"/><path class="cls-11" d="M94.41,16.84a35.56,35.56,0,0,0-2.31-3.91C88.36,7.56,83,2.77,74.32,2.74A28.42,28.42,0,0,0,66.22,4C46.33,9.91,36.73,23,31.29,31.13c-1.87,2.75-3,4.8-4.67,6.53A34.28,34.28,0,0,1,22.44,41c-1.66,1.17-3.58,2.48-5.55,3.92C13,47.74,8.82,51.16,6.42,54.46a10.14,10.14,0,0,0-2.36,5.8A30.36,30.36,0,0,0,4.46,66C18.59,50.81,54.8,16.75,94.41,16.84Z"/><path class="cls-12" d="M35.88,31.06S66.06-1.21,84.27,11.16C84.27,11.16,61,13.08,35.88,31.06Z"/><path class="cls-13" d="M134.51,15.2s-3,1.9,2,8.75,6.52,8.31,9.34,7.36S137,12.73,134.51,15.2Z"/><path class="cls-14" d="M109.71,35.36s12.67-1,23-14.72c0,0-.2,4.52,2.4,6C135.12,26.67,120.88,35.84,109.71,35.36Z"/><path class="cls-14" d="M101.72,12.61s-2.36.77-3.36,12.43C98.36,25,100.32,14.9,101.72,12.61Z"/><path class="cls-14" d="M88,39.5a21.49,21.49,0,0,1,6.26-2.45,5.12,5.12,0,0,0,2.28-2.47s-.6,2.57-2.72,3A44.51,44.51,0,0,0,88,39.5Z"/><path class="cls-14" d="M111.81,58.59s.59,6.4,1.26,7.07a5.16,5.16,0,0,1,2.09-3.95S112.47,63.8,111.81,58.59Z"/><path class="cls-15" d="M10.86,78.94s18.07-5,25.56-10.57,26,7.17,58-15c0,0-15.14,22.48-47.08,20.18C47.38,73.56,9.92,84.75,10.86,78.94Z"/></g></g></svg>