<svg xmlns="http://www.w3.org/2000/svg" xmlns:xlink="http://www.w3.org/1999/xlink" viewBox="0 0 201.35 48.81"><defs><style>.cls-1{fill:url(#linear-gradient);}.cls-2{fill:url(#linear-gradient-2);}.cls-3{fill:url(#linear-gradient-3);}.cls-4{fill:url(#linear-gradient-4);}.cls-5{fill:url(#linear-gradient-5);}.cls-6{fill:none;}.cls-7{fill:#fff;}.cls-8{fill:#df4806;}.cls-9{fill:#fba669;}.cls-10{fill:#f96d1b;}</style><linearGradient id="linear-gradient" x1="279.84" y1="-129.49" x2="278.77" y2="-140.44" gradientTransform="translate(-115.71 104.73) rotate(11.43)" gradientUnits="userSpaceOnUse"><stop offset="0" stop-color="#698200"/><stop offset="0.21" stop-color="#83a200"/><stop offset="0.51" stop-color="#a4cc00"/><stop offset="1" stop-color="#b8e600"/></linearGradient><linearGradient id="linear-gradient-2" x1="262.15" y1="-126.72" x2="262.15" y2="-146.74" xlink:href="#linear-gradient"/><linearGradient id="linear-gradient-3" x1="185.66" y1="-95.6" x2="175.02" y2="-136.3" gradientTransform="translate(-115.71 104.73) rotate(11.43)" gradientUnits="userSpaceOnUse"><stop offset="0" stop-color="#f76100"/><stop offset="1" stop-color="#fc9322"/></linearGradient><linearGradient id="linear-gradient-4" x1="245.8" y1="-150.85" x2="182.46" y2="-131.92" gradientTransform="translate(-115.71 104.73) rotate(11.43)" gradientUnits="userSpaceOnUse"><stop offset="0" stop-color="#fecb8e"/><stop offset="1" stop-color="#fc9330"/></linearGradient><linearGradient id="linear-gradient-5" x1="115.49" y1="-118.09" x2="243.07" y2="-118.32" gradientTransform="translate(-115.71 104.73) rotate(11.43)" gradientUnits="userSpaceOnUse"><stop offset="0" stop-color="#f76100"/><stop offset="1" stop-color="#eb5c00"/></linearGradient></defs><g id="Layer_2" data-name="Layer 2"><g id="Layer_1-2" data-name="Layer 1"><path class="cls-1" d="M168,33.35s18.46,1.38,27.11,8.72l2.79-1.38s-9.23-8.11-26.6-8.79c0,0,12.64.05,23.2,2.75l1.71-3.22S177,31.51,173,29c0,0,23.35,2.05,27.89-.36l.51-3.71S187,29.72,171.44,26c0,0,8.39-2.19,15.56-.75l1-3.13s-3.31-.85-10.07.48c0,0,7.5-3,15.14-1.48l.33-4.07a101.61,101.61,0,0,0-22.31,4Z"/><path class="cls-2" d="M167.82,16.67s5.22,1.07,2.65,10.93-6,12.3-8.25,11.41C162.22,39,165.26,17.68,167.82,16.67Z"/><path class="cls-3" d="M168.05,21.81C169.66,3.18,146,1,146,1,84.18-4.74,42.3,16,27.19,25.2h0s-7,3-9.69,4.12-3.38,1.36-4.8,1.07S7.09,30.24,0,35c0,0,8-5.15,12.4-3.77s7.14-2.34,10.84-.87h0C58.66,45,115.65,49.42,141.5,48.75,167.91,48.06,168.05,21.81,168.05,21.81Z"/><path class="cls-4" d="M156.74,9.06S135.36-2.39,65.43,13.6C65.43,13.6,144.19,7.44,156.74,9.06Z"/><path class="cls-5" d="M168.05,21.81c.06-.6.08-1.19.08-1.76C164.26,25.12,158,29.41,148,30.74c-26,3.46-80.86,5.3-121.47-3.47a2,2,0,0,0-2.16,1.51c-.31,1.51.19,2,1.45,2.55l.76.31.07,0C62.23,45.3,116.47,49.4,141.5,48.75,167.91,48.05,168.05,21.81,168.05,21.81Z"/><path class="cls-6" d="M88,38.15s1.48,1-1.64,7.21l-1.64-.22A8.9,8.9,0,0,0,88,38.15Z"/><path class="cls-7" d="M122.44,5.22c-3.16.12-6.59.33-10.28.65l4.34,4.24c3.52-.2,7-.39,10.37-.56ZM104.72,6.63l4,4,3.93-.24-4.21-4.12C107.25,6.35,106,6.48,104.72,6.63Z"/><path class="cls-8" d="M153.35,34S149.07,38.6,151,44.51C151,44.51,154.11,39.39,153.35,34Z"/><path class="cls-9" d="M153.35,34A10.73,10.73,0,0,1,151,44.51,35.62,35.62,0,0,0,153.35,34Z"/><path class="cls-8" d="M132.85,21.24s-3.87,7.43.76,14.35C133.61,35.59,135.75,27.87,132.85,21.24Z"/><path class="cls-9" d="M132.85,21.24s4.78,6.74.76,14.35A47.27,47.27,0,0,0,132.85,21.24Z"/><path class="cls-8" d="M123,38.88s-3.39,3.84-1.65,8.62C121.39,47.5,123.79,43.24,123,38.88Z"/><path class="cls-9" d="M123,38.88a8.77,8.77,0,0,1-1.65,8.62A28.91,28.91,0,0,0,123,38.88Z"/><path class="cls-8" d="M87.24,15.71s-1.5,4.9,2.06,8.54C89.3,24.25,89.72,19.37,87.24,15.71Z"/><path class="cls-9" d="M87.24,15.71a8.78,8.78,0,0,1,2.06,8.54A29.1,29.1,0,0,0,87.24,15.71Z"/><path class="cls-8" d="M51.28,28.94s-3.64,3.6-2.23,8.49C49.05,37.43,51.73,33.34,51.28,28.94Z"/><path class="cls-9" d="M51.28,28.94a8.76,8.76,0,0,1-2.23,8.49A29.32,29.32,0,0,0,51.28,28.94Z"/><path class="cls-8" d="M110.94,22.62s-2.07,4.69,1,8.72C112,31.34,113,26.55,110.94,22.62Z"/><path class="cls-9" d="M110.94,22.62a8.79,8.79,0,0,1,1,8.72A29,29,0,0,0,110.94,22.62Z"/><path class="cls-8" d="M62.5,12.83s-2.07,4.68,1,8.72C63.52,21.55,64.53,16.76,62.5,12.83Z"/><path class="cls-9" d="M62.5,12.83a8.76,8.76,0,0,1,1,8.72A28.81,28.81,0,0,0,62.5,12.83Z"/><path class="cls-8" d="M85,32s-3.83,4.9-1.38,10.58C83.66,42.53,86.27,37.18,85,32Z"/><path class="cls-9" d="M85,32a10.64,10.64,0,0,1-1.38,10.58A35.36,35.36,0,0,0,85,32Z"/><path class="cls-10" d="M140.8,4.8s-1.91,6,2.39,10.47C143.19,15.27,143.78,9.31,140.8,4.8Z"/><path class="cls-9" d="M140.8,4.8a10.73,10.73,0,0,1,2.39,10.47A35.48,35.48,0,0,0,140.8,4.8Z"/><path class="cls-10" d="M160.2,19.2s-3.44,5.24-.51,10.73C159.69,29.93,161.86,24.35,160.2,19.2Z"/><path class="cls-9" d="M160.2,19.2a10.74,10.74,0,0,1-.51,10.73A35.53,35.53,0,0,0,160.2,19.2Z"/><path class="cls-10" d="M98.83,4s-1,6.72,4.41,10.78C103.24,14.77,102.82,8.29,98.83,4Z"/><path class="cls-9" d="M98.83,4a11.63,11.63,0,0,1,4.41,10.78A38.32,38.32,0,0,0,98.83,4Z"/></g></g></svg>