<svg xmlns="http://www.w3.org/2000/svg" xmlns:xlink="http://www.w3.org/1999/xlink" viewBox="0 0 151.98 170.31"><defs><style>.cls-1{fill:url(#linear-gradient);}.cls-2{fill:url(#linear-gradient-2);}.cls-3{fill:url(#linear-gradient-3);}.cls-4{fill:url(#linear-gradient-4);}.cls-5{fill:url(#radial-gradient);}.cls-6{fill:url(#linear-gradient-5);}.cls-7{fill:url(#linear-gradient-6);}.cls-8{fill:url(#linear-gradient-7);}.cls-9{fill:url(#linear-gradient-8);}.cls-10{fill:url(#radial-gradient-2);}.cls-11{fill:url(#linear-gradient-9);}.cls-12{fill:url(#radial-gradient-3);}.cls-13{fill:url(#linear-gradient-10);}.cls-14{fill:url(#linear-gradient-11);}.cls-15{fill:url(#linear-gradient-12);}.cls-16{fill:url(#linear-gradient-13);}.cls-17{fill:url(#linear-gradient-14);}.cls-18{fill:url(#linear-gradient-15);}.cls-19{fill:url(#radial-gradient-4);}.cls-20{fill:url(#linear-gradient-16);}.cls-21{fill:url(#linear-gradient-17);}.cls-22{fill:url(#linear-gradient-18);}.cls-23{fill:url(#linear-gradient-19);}.cls-24{fill:url(#linear-gradient-20);}.cls-25{fill:url(#linear-gradient-21);}.cls-26{fill:url(#linear-gradient-22);}.cls-27{fill:url(#linear-gradient-23);}.cls-28{fill:url(#linear-gradient-24);}.cls-29{fill:url(#linear-gradient-25);}.cls-30{fill:url(#linear-gradient-26);}.cls-31{fill:url(#linear-gradient-27);}.cls-32{fill:url(#linear-gradient-28);}.cls-33{fill:url(#linear-gradient-29);}.cls-34{fill:url(#linear-gradient-30);}.cls-35{fill:url(#linear-gradient-31);}.cls-36{fill:url(#linear-gradient-32);}.cls-37{fill:url(#linear-gradient-33);}.cls-38{fill:url(#linear-gradient-34);}.cls-39{fill:url(#linear-gradient-35);}</style><linearGradient id="linear-gradient" x1="-10.95" y1="28.39" x2="-5.55" y2="36.6" gradientUnits="userSpaceOnUse"><stop offset="0" stop-color="#a4cc00"/><stop offset="0.23" stop-color="#8eb100"/><stop offset="1" stop-color="#4a5c00"/></linearGradient><linearGradient id="linear-gradient-2" x1="69.54" y1="122.11" x2="69.54" y2="157.06" gradientUnits="userSpaceOnUse"><stop offset="0" stop-color="#5f7500"/><stop offset="0.25" stop-color="#83a200"/><stop offset="0.51" stop-color="#a4cc00"/><stop offset="1" stop-color="#beed00"/></linearGradient><linearGradient id="linear-gradient-3" x1="102.11" y1="142.16" x2="81.82" y2="142.16" gradientUnits="userSpaceOnUse"><stop offset="0" stop-color="#e1f0a1"/><stop offset="0.03" stop-color="#e1f19f"/><stop offset="1" stop-color="#e1ff69"/></linearGradient><linearGradient id="linear-gradient-4" x1="92.91" y1="313.88" x2="154.17" y2="307.58" gradientTransform="translate(-68.45 -199.4) rotate(-18.03)" gradientUnits="userSpaceOnUse"><stop offset="0" stop-color="#698200"/><stop offset="0.21" stop-color="#83a200"/><stop offset="0.51" stop-color="#a4cc00"/><stop offset="1" stop-color="#beed00"/></linearGradient><radialGradient id="radial-gradient" cx="50.87" cy="237.89" r="62.1" gradientTransform="translate(-68.45 -199.4) rotate(-18.03)" gradientUnits="userSpaceOnUse"><stop offset="0" stop-color="#beed00"/><stop offset="0.17" stop-color="#bae800"/><stop offset="0.37" stop-color="#aed900"/><stop offset="0.6" stop-color="#9bc000"/><stop offset="0.83" stop-color="#809f00"/><stop offset="1" stop-color="#698200"/></radialGradient><linearGradient id="linear-gradient-5" x1="36.64" y1="268.1" x2="70.97" y2="269.34" gradientTransform="translate(-68.45 -199.4) rotate(-18.03)" xlink:href="#linear-gradient-3"/><linearGradient id="linear-gradient-6" x1="67.57" y1="52.74" x2="62.48" y2="30.9" gradientUnits="userSpaceOnUse"><stop offset="0" stop-color="#86a600"/><stop offset="1" stop-color="#c9ed3e"/></linearGradient><linearGradient id="linear-gradient-7" x1="173.73" y1="30.6" x2="183.16" y2="20.98" gradientUnits="userSpaceOnUse"><stop offset="0" stop-color="#5b7000"/><stop offset="0.52" stop-color="#83a200"/><stop offset="1" stop-color="#a4cc00"/></linearGradient><linearGradient id="linear-gradient-8" x1="80.86" y1="338.68" x2="104.91" y2="359.3" xlink:href="#linear-gradient-4"/><radialGradient id="radial-gradient-2" cx="61.68" cy="314.06" r="31.63" gradientTransform="translate(-68.45 -199.4) rotate(-18.03)" gradientUnits="userSpaceOnUse"><stop offset="0" stop-color="#a4cc00"/><stop offset="0.41" stop-color="#84a400"/><stop offset="1" stop-color="#596e00"/></radialGradient><linearGradient id="linear-gradient-9" x1="-875.65" y1="851.95" x2="-860.05" y2="837.81" gradientTransform="translate(-973.96 -480.03) rotate(-107.6)" xlink:href="#linear-gradient-6"/><radialGradient id="radial-gradient-3" cx="43.3" cy="309.12" r="29.27" gradientTransform="translate(-68.45 -199.4) rotate(-18.03)" gradientUnits="userSpaceOnUse"><stop offset="0" stop-color="#b2de00"/><stop offset="0.17" stop-color="#aed900"/><stop offset="0.35" stop-color="#a4cc00"/><stop offset="0.51" stop-color="#94b800"/><stop offset="1" stop-color="#698200"/></radialGradient><linearGradient id="linear-gradient-10" x1="55.94" y1="95.33" x2="68.13" y2="84.27" gradientUnits="userSpaceOnUse"><stop offset="0" stop-color="#a5cf00"/><stop offset="1" stop-color="#dded9f"/></linearGradient><linearGradient id="linear-gradient-11" x1="-1417" y1="-27.44" x2="-1404.81" y2="-38.5" gradientTransform="matrix(-0.98, 0.2, -0.2, -0.98, -1319.07, 326.55)" xlink:href="#linear-gradient-10"/><linearGradient id="linear-gradient-12" x1="36.98" y1="307.94" x2="58.1" y2="311.24" gradientTransform="translate(-68.45 -199.4) rotate(-18.03)" xlink:href="#linear-gradient-3"/><linearGradient id="linear-gradient-13" x1="72.9" y1="142.48" x2="79.96" y2="166.25" gradientUnits="userSpaceOnUse"><stop offset="0" stop-color="#cf0"/><stop offset="1" stop-color="#dded9f"/></linearGradient><linearGradient id="linear-gradient-14" x1="72.9" y1="141.48" x2="79.96" y2="165.25" xlink:href="#linear-gradient-6"/><linearGradient id="linear-gradient-15" x1="-21.33" y1="80.98" x2="-13.69" y2="80.98" gradientUnits="userSpaceOnUse"><stop offset="0" stop-color="#a4cc00"/><stop offset="0.14" stop-color="#99be00"/><stop offset="1" stop-color="#546900"/></linearGradient><radialGradient id="radial-gradient-4" cx="60.03" cy="72.95" r="25.39" gradientUnits="userSpaceOnUse"><stop offset="0" stop-color="#a4cc00"/><stop offset="0.26" stop-color="#a1c900"/><stop offset="0.48" stop-color="#99be00"/><stop offset="0.69" stop-color="#8bac00"/><stop offset="0.89" stop-color="#779300"/><stop offset="1" stop-color="#698200"/></radialGradient><linearGradient id="linear-gradient-16" x1="31.96" y1="307.95" x2="26.55" y2="306.34" gradientTransform="translate(-68.45 -199.4) rotate(-18.03)" gradientUnits="userSpaceOnUse"><stop offset="0" stop-color="#698200"/><stop offset="0.41" stop-color="#83a200"/><stop offset="1" stop-color="#a4cc00"/></linearGradient><linearGradient id="linear-gradient-17" x1="41.01" y1="80.32" x2="50.64" y2="80.44" xlink:href="#linear-gradient-6"/><linearGradient id="linear-gradient-18" x1="24.46" y1="307.74" x2="36.68" y2="307.74" gradientTransform="translate(-68.45 -199.4) rotate(-18.03)" xlink:href="#linear-gradient-3"/><linearGradient id="linear-gradient-19" x1="180.64" y1="131.81" x2="169.09" y2="126.41" xlink:href="#linear-gradient"/><linearGradient id="linear-gradient-20" x1="109.58" y1="99.33" x2="138.23" y2="107.65" xlink:href="#linear-gradient-6"/><linearGradient id="linear-gradient-21" x1="96.49" y1="328.97" x2="45.53" y2="236.2" gradientTransform="translate(-68.45 -199.4) rotate(-18.03)" gradientUnits="userSpaceOnUse"><stop offset="0" stop-color="#698200"/><stop offset="0.3" stop-color="#9dc300"/><stop offset="0.52" stop-color="#beed00"/><stop offset="0.69" stop-color="#bae800"/><stop offset="0.9" stop-color="#aed900"/><stop offset="1" stop-color="#a6cf00"/></linearGradient><linearGradient id="linear-gradient-22" x1="45.99" y1="293.69" x2="85.35" y2="293.69" xlink:href="#linear-gradient-4"/><linearGradient id="linear-gradient-23" x1="45.99" y1="293.69" x2="85.35" y2="293.69" gradientTransform="translate(-68.45 -199.4) rotate(-18.03)" xlink:href="#linear-gradient-3"/><linearGradient id="linear-gradient-24" x1="75.79" y1="354.98" x2="13.95" y2="338.95" xlink:href="#linear-gradient-21"/><linearGradient id="linear-gradient-25" x1="-3.22" y1="329.4" x2="77.8" y2="329.4" xlink:href="#linear-gradient-4"/><linearGradient id="linear-gradient-26" x1="-3.22" y1="329.4" x2="77.8" y2="329.4" gradientTransform="translate(-68.45 -199.4) rotate(-18.03)" xlink:href="#linear-gradient-3"/><linearGradient id="linear-gradient-27" x1="2.49" y1="107.79" x2="30.11" y2="93.17" gradientUnits="userSpaceOnUse"><stop offset="0" stop-color="#698200"/><stop offset="0.11" stop-color="#83a200"/><stop offset="0.26" stop-color="#a4cc00"/><stop offset="0.45" stop-color="#a1c900"/><stop offset="0.62" stop-color="#99be00"/><stop offset="0.77" stop-color="#8bac00"/><stop offset="0.92" stop-color="#779300"/><stop offset="1" stop-color="#698200"/></linearGradient><linearGradient id="linear-gradient-28" x1="-59.62" y1="83.51" x2="-44.16" y2="83.51" xlink:href="#linear-gradient"/><linearGradient id="linear-gradient-29" x1="-6.68" y1="299.71" x2="8.19" y2="299.71" gradientTransform="translate(-68.45 -199.4) rotate(-18.03)" xlink:href="#linear-gradient-3"/><linearGradient id="linear-gradient-30" x1="136.66" y1="71.25" x2="126.47" y2="51.24" gradientTransform="matrix(1, 0, 0, 1, 0, 0)" xlink:href="#linear-gradient-4"/><linearGradient id="linear-gradient-31" x1="103.52" y1="312.07" x2="123.62" y2="312.07" gradientTransform="translate(-68.45 -199.4) rotate(-18.03)" xlink:href="#linear-gradient-3"/><linearGradient id="linear-gradient-32" x1="105.43" y1="356.07" x2="97.76" y2="350.83" xlink:href="#linear-gradient-4"/><linearGradient id="linear-gradient-33" x1="33.66" y1="365.56" x2="36.86" y2="350.09" gradientTransform="translate(-68.45 -199.4) rotate(-18.03)" xlink:href="#linear-gradient-13"/><linearGradient id="linear-gradient-34" x1="9.74" y1="96.95" x2="23.89" y2="93.87" gradientUnits="userSpaceOnUse"><stop offset="0" stop-color="#f3ffc2"/><stop offset="1" stop-color="#dded9f"/></linearGradient><linearGradient id="linear-gradient-35" x1="9.15" y1="97.19" x2="23.31" y2="94.11" gradientUnits="userSpaceOnUse"><stop offset="0" stop-color="#9bb531"/><stop offset="1" stop-color="#dded9f"/></linearGradient></defs><g id="Layer_2" data-name="Layer 2"><g id="Layer_1-2" data-name="Layer 1"><path class="cls-1" d="M51.45,87.55c4.15,12.73-1.14,25.87-11.8,29.34s-22.67-4-26.81-16.77S14,74.25,24.64,70.78,47.31,74.82,51.45,87.55Z"/><path class="cls-2" d="M125.91,120.2s4,4.69,3.92,7.15-1.88,6.75-3.05,9.05-.54,2-1.8,2.74a4.68,4.68,0,0,0-2.19,2.43,4.33,4.33,0,0,1-2.1,2.44,4.82,4.82,0,0,0-2.25,2.49c-.62,1.2-.77,2.41-2.43,3.32s-5.53,2.21-6,3.81-.91,2.62-.48,3.92,1.31,2.39.23,3.23a14.56,14.56,0,0,1-3.74,2.32c-1.17.38-1.43.65-2.29,2.34s-1.75,2.93-5.1,4-10,1-13.38.31a31.24,31.24,0,0,1-7.85-2.92c-1.81-.92-1.66-3-4.42-2.89s-2.48-2.13-6.06-1.58-8.09,1.24-11.89.48-5.43-.36-6.4-1.59-2.59-2.18-3.58-1.86a3.83,3.83,0,0,1-3.69-.27c-1.88-1-5.45-5.08-7.5-7.11s-4.68-5.59-5.26-6.25-1.44-1.41-1.26-2.37a6.73,6.73,0,0,0-.22-5.07c-1.14-2.74-2.11-6-.87-7.07s0-1.06-.15-1.46.64-2-.8-2.44-3.19,1-5.88-1.64-5.9-4.45-7.41-6.08-2.82-5.41-2.82-5.41L74.61,73.4Z"/><path class="cls-3" d="M26.15,129.82a.45.45,0,0,0,.19.2c1-.93.18-1-.11-1.3A6.57,6.57,0,0,0,26.15,129.82Zm0-1.69c.09-.65.28-1.67-.82-2-1.43-.38-3.19,1-5.88-1.63s-5.9-4.45-7.41-6.08A16.74,16.74,0,0,1,9.61,114l-.37.23s1.31,3.78,2.82,5.41,4.73,3.49,7.41,6.08,4.45,1.25,5.88,1.64A1.07,1.07,0,0,1,26.17,128.13Zm103.6-1.37c-.28,2.5-1.91,6.3-3,8.43-1.17,2.3-.54,2-1.8,2.73a4.72,4.72,0,0,0-2.19,2.43,4.3,4.3,0,0,1-2.1,2.44,4.82,4.82,0,0,0-2.25,2.49c-.62,1.2-.77,2.42-2.43,3.32s-5.53,2.21-6,3.82c-.37,1.43-.79,2.39-.59,3.49.11-.68.36-1.38.59-2.28.42-1.6,4.28-2.9,6-3.81s1.81-2.12,2.43-3.32a4.82,4.82,0,0,1,2.25-2.49,4.33,4.33,0,0,0,2.1-2.44,4.68,4.68,0,0,1,2.19-2.43c1.26-.78.63-.44,1.8-2.74s3-6.61,3.05-9.05A2.41,2.41,0,0,0,129.77,126.76Zm-20,32.8a14.29,14.29,0,0,1-3.74,2.32c-1.17.39-1.43.66-2.29,2.35s-1.75,2.93-5.1,4-10,1-13.38.31a30.89,30.89,0,0,1-7.85-2.91c-1.81-.93-1.66-3-4.42-2.9s-2.48-2.13-6.06-1.57-8.09,1.24-11.89.48-5.43-.36-6.4-1.6-2.59-2.17-3.58-1.85a3.83,3.83,0,0,1-3.69-.27c-1.88-1-5.45-5.09-7.5-7.12s-4.68-5.58-5.26-6.25A5.7,5.7,0,0,1,27.48,143c0,.14-.07.27-.09.4-.18,1,.68,1.7,1.26,2.37S31.86,150,33.91,152s5.62,6.15,7.5,7.11a3.83,3.83,0,0,0,3.69.27c1-.32,2.61.63,3.58,1.86s2.6.83,6.4,1.59,8.31.07,11.89-.48S70.28,164.05,73,164s2.61,2,4.42,2.89a31.24,31.24,0,0,0,7.85,2.92c3.42.72,10,.78,13.38-.31s4.23-2.34,5.1-4,1.12-2,2.29-2.34a14.56,14.56,0,0,0,3.74-2.32,1.33,1.33,0,0,0,.37-1.67A1.27,1.27,0,0,1,109.81,159.56ZM27.17,137.13a18.51,18.51,0,0,1-1.4-4.74c-.23,1.5.53,3.87,1.4,6a8,8,0,0,1,.58,2.18A6.66,6.66,0,0,0,27.17,137.13Z"/><path class="cls-4" d="M138.35,101.09s3.07-3.22,5.39-5.51,5.55-5.14,5.86-6.44,1.67-3.28,1.26-5.55-2.77-8.78-3.55-11.17a85.39,85.39,0,0,0-5.5-11.78c-1.69-2.78-6-9.86-6.13-10.28a99.24,99.24,0,0,0-5.84-10c-2.57-3.75-8.37-10.2-10.1-10.1s-1.49-.3-3.41.32a42.2,42.2,0,0,0-5.43,2.28c-.82.45-29.42,26.69-29.42,26.69L93.07,95.16S115.28,108.6,138.35,101.09Z"/><path class="cls-5" d="M111.91,58.05s1.17-6.71.65-7.31-1.31-.92-.42-1.59S116.9,46,116,44.05s-6-4.18-4.76-5.36,4.74-3.41,4.07-5.44l-1.59-4.9a5.54,5.54,0,0,0-2.83-3.11c-.72-.36-1.28,0-1.41-2.27s.9-2.69-.33-4-2.9-2.42-3.12-3.69.72-1.33-1.61-3.17-4.75-2.81-5.8-4.86,0-1.23-2.26-2.38-8.1-2.79-11-3.46S78.83-.6,77,.29,75.77,1.5,73.82,2.14s-4.37,1-7.84,2.12-11.69,8.26-14.07,9S50.46,14.73,46.29,15s-14.17,2.12-19,4.75-6.91,5.13-6.74,7.57.41,5.52-.45,6.42-3,1.81-2,4,3.41,4.44,3.56,6.07-1.71,6.83-3.33,9.09S18,75.19,18,75.19s3.89,10.39,12.85,5.19c0,0-3.88,4.63-.47,6.36s8.23-.39,8.85-1.61S77.93,59.72,77.93,59.72Z"/><path class="cls-6" d="M106.05,14.53c0-.63.12-1-1.6-2.38-2.32-1.83-4.75-2.81-5.8-4.86s0-1.23-2.26-2.38-8.1-2.79-11-3.46S78.83-.6,77,.29,75.77,1.5,73.82,2.14s-4.37,1-7.84,2.12-11.69,8.26-14.07,9S50.46,14.73,46.29,15s-14.17,2.12-19,4.75-6.91,5.13-6.74,7.57.41,5.52-.45,6.42-3,1.81-2,4c.05.11.12.22.18.33-.06-1.46,1.55-2.23,2.26-3,.86-.9.62-4,.45-6.42s1.89-4.93,6.74-7.57,14.85-4.44,19-4.75,3.23-1,5.62-1.73S63,6.71,66.41,5.58s5.89-1.49,7.84-2.12,1.37-1,3.19-1.85,5.39.5,8.34,1.17,8.77,2.29,11,3.45,1.21.32,2.26,2.38,3.48,3,5.8,4.87A9.14,9.14,0,0,1,106.05,14.53ZM29.37,86c-.06-2,1.86-4.25,1.86-4.25a12.57,12.57,0,0,1-1.79.86A3.33,3.33,0,0,0,29.37,86Zm81.55-60.72c-.36-.18-.69-.17-.93-.41.19,1.68.71,1.4,1.36,1.74a5.48,5.48,0,0,1,2.83,3.1c-.13-.41-.27-.83-.43-1.32A5.54,5.54,0,0,0,110.92,25.24Zm-4.43-8.6c.22,1.28,1.89,2.41,3.12,3.69l.15.19a1.6,1.6,0,0,0-.58-1.51,27.16,27.16,0,0,1-2.73-2.78A3.15,3.15,0,0,0,106.49,16.64Zm9.65,28.22a1.5,1.5,0,0,0-.11-.81c-.59-1.32-3.19-2.79-4.37-4C110.73,41.16,114.76,43.09,116.14,44.86Zm-97.84,8C16.69,55.15,18,75.19,18,75.19s.14.35.41.9c-.17-2.88-1.11-19.81.37-21.87,1.62-2.25,3.47-7.46,3.33-9.08a3.88,3.88,0,0,0-.43-1.25C21.71,45.6,19.89,50.68,18.3,52.9Zm94.12-2.3c-.5.47-.15.78.27,1.17a2.09,2.09,0,0,0-.13-1Z"/><path class="cls-7" d="M32.24,27.57a2.75,2.75,0,0,1-.15-.25A1.67,1.67,0,0,0,32.24,27.57ZM50.59,41c-2.33.85-5.22,1.79-8.05,1.2s-3.82-2-5.94-1.88-8.3,1.08-8.92,1.11-6.64-.86-7.14-.84S28.77,43.5,30.67,43s3.84-2.09,7-.75,3.71,2.45,6.57,2.33,3.92-1.65,6.91-1.77L58,42.48a28.46,28.46,0,0,1,6.24,1.08,4.89,4.89,0,0,1-.19,2.57,29.84,29.84,0,0,0-.42,5.65l3.52,1.27s-.79-3-1.2-5.51c1.5-.6,5.38-2,7.76-1.7,3,.38,5.51.65,7.11.08s4.74-2.93,7.85-3.05S92.75,42.08,96,42s6.41-1.63,6.91-1.65S108.58,39,108.58,39,96.2,41,91.34,41.14s-7.07.78-8.26,2.08-3.81,1.4-5.3,1.46-4.5-.32-6.49-.24a33.27,33.27,0,0,0-5.58,1.14,2.58,2.58,0,0,1,.2-1.55c.9-1-1.16-4.06-1.23-5.81-.06-1.55-3.2-2-5.12-3.27a17.9,17.9,0,0,1,2.84-.75,9.06,9.06,0,0,0,4.17-1.78A11.08,11.08,0,0,1,71.46,30c1.12-.05,5.24-1.4,6.73-3s7.58-3.55,7.58-3.55a42.7,42.7,0,0,1-5.68,1.35c-1.36.05-4.87,2.69-6.71,3.39A21.72,21.72,0,0,1,68,29.62c-1.37.05-3,2.74-5,2.82a21.18,21.18,0,0,0-4.89,1.1,14.76,14.76,0,0,1-1.93-3.2,4.9,4.9,0,0,1-1.51-3.43c-.09-2.23-2.22-5.76-2.61-6.12s-3.87-3.21-3.87-3.21a19,19,0,0,1,3.75,6.58c.67,2.32,1.05,4.33,1.49,5.69a43.06,43.06,0,0,1-5.19-1.68c-.39-.36-2.4-.77-2.78-1.13S39,27.3,36,28.41c-2.31.88-3.4-.29-3.76-.84,1.76,3.16,6.56.85,8.62.77s3.79-.21,4.63.56,3.8,1.47,6.34,2.74a6.86,6.86,0,0,0,3.29,1,12.86,12.86,0,0,0,2.09,2.57c1.68,1.55,4.92,1.55,5.75,3.51a7.51,7.51,0,0,1,.52,2.12S52.92,40.19,50.59,41ZM92.15,54.94a13.8,13.8,0,0,1-4.57,1.18c-1.74.07-6.51,1-6.51,1l-2.33,3.09s7.3-2.13,10-2.86,5.16-2,6.65-2l7.47-.3,5-.2,1.69-1.56-9.21.36A26,26,0,0,0,92.15,54.94Z"/><path class="cls-8" d="M114.46,62.93s5.46,22.15,11.14,40.37a46.5,46.5,0,0,0,12.17-2.21s3.07-3.22,5.39-5.51,5.55-5.14,5.87-6.44,1.66-3.28,1.25-5.55-2.77-8.78-3.55-11.17a83.11,83.11,0,0,0-5.5-11.78c-1.26-2.08-4-6.58-5.34-8.88-6.4-.78-3.82,0-8.92-.37-5.75-.44-7.12-.58-7.12.57s.19,4.62-1.93,4.62-.57,2.69-.57,5.39S114.46,62.93,114.46,62.93Z"/><path class="cls-9" d="M98,128.48s-1.46,4.78-1.71,5.28.1.72-.36,1.62-1,3.08-.09,3.52c0,0-1.12,1.29.73,2.23s1.2,1.59,2.94,1,1.73.46,3,.06l6.13-2c1.73-.57,8.23-7.34,9.86-8.21s7.3-7.65,10-10.93,8.95-14.76,9.07-16.51,1.49-13.09,1.2-16.28-2-10-2.54-12.46-2.59-13-2.82-14.76-.71-4.59-1.73-5.12-1.47-2.91-3.47-2.84-2.38-.08-2.78.7-1.57.29-2.1,1.33.47,2.08-1.2,2.62-3.4-.74-2.77,1.17,2.51,3.5,1,4.81-3.15-.41-2.53,2.54,1.22,13,.3,14.82-5.79,7-5.93,8.3-6.62,16.88-7.37,18.36S98,128.48,98,128.48Z"/><path class="cls-10" d="M66.29,108.84s2.67,5.89,3.84,6.48,18.84-.94,19.78-1.25,11-4,11.65-4.25,12.72-8.41,12.72-8.41,7.46-9.69,6.29-16.46S110,71,109.38,69s-5.72-11.17-9.3-14.39-8-7-11.75-6.67S76.82,48,75.07,49.7s-8.68,6.63-8.17,12.46,3.13,9.25.38,14.64-7.87,14.79-7.23,16.77S65.44,106.24,66.29,108.84Z"/><path class="cls-11" d="M97.1,72.25c.65,3.25-.39,3.58-.21,4.16a12.26,12.26,0,0,1-.55,4.33c-.35.69-1.13,1.25-1.41,1.79S95,84.75,94.88,85s.72,1.79-.18,2.07c-.82-1.08-1-1.45-1.58-1.77-.77-.4-1-1.73-1.91-2.21s-.85-1.65-3.23-2.3a9.64,9.64,0,0,1-1.9-.82s-.36-1.47-.69-2.51a1.55,1.55,0,0,1,.22-1.73,17.46,17.46,0,0,0,1.18-4.34c.08-1.17-.11-4.38-.11-4.38l-.56,4.08s-.75,4.07-1.68,4.37.56,3.88.56,3.88l1.06.62a32,32,0,0,1-4.17-2.84l1.25,1.8,6.3,3.71-1.13.8-2.77,1a3.7,3.7,0,0,0-1.6,1.21c-.19.38-3,1.53-3,1.53a19.81,19.81,0,0,1-5.3,2.83c-2.79.89-2.26,2.38-2.26,2.38a3.91,3.91,0,0,1,2.89-2c.92-.3,4.45-1.86,5.45-3s3.52-2,5-2.72,3.27-1.44,3.58-1.56l.18.11a36.63,36.63,0,0,1,3.38,4.14,13.65,13.65,0,0,0,3.32,3.46l-.76.24L93,92.41s-.29,2.07-.54,3.3-2.7,1-4.38,1.52-2.44.77-2.64,1.15-4.52,2.07-5.33,2.33-3.59.57-4.87,1-3.08,4.81-3.08,4.81a43.69,43.69,0,0,0,3-3.63c.37-.73,2-1.07,2.94-1.39s2.94-.61,3.93-.92a30.37,30.37,0,0,0,4.79-2c1.63-.9,4.27-1,5-1.26s1.32-1.25,1.44-2.74.83-1.59,2.27-2l2.84-.9a2,2,0,0,0,.25.14A19.34,19.34,0,0,0,107,93.57h0c-1.32,1.39-4.83,5.09-5.66,6a9.25,9.25,0,0,0-1.89,2.8c-.8,1.53-4.06,3.24-4.18,3.47s-3.87,2.5-3.87,2.5l2.57-.56s4.61-3.82,5.59-4.14,1.65-2,2.11-2.84,3.8-1.71,3.7-2.83,0-2.29.61-2.5,1.63-.22,2-.88a2.51,2.51,0,0,1,2.2-.82,9.31,9.31,0,0,1,1.56.75c1.16.61,1.43.75,4,.64s2.58,2,2.58,2c.86-.27.34-3.82.34-3.82a8.47,8.47,0,0,1-2,.28c-.08-.85-.27-2.77-.39-3.17s-.23-3.32-.37-3.78,2.5-1.37,1.93-3.17-1.48-1.26-1.48-1.26,1.2,1.16.37,2-.9,1.79-1.39,1.95-.51.32-.35,1.61.33,3.47.44,3.82a14.61,14.61,0,0,1,.15,1.86c-.53.07-1.14.3-1.51.11a13.83,13.83,0,0,0-3.92-1.51,20.09,20.09,0,0,0-3.23.32l-.45.06s.39-4.51.07-5.5-.89-4.83-.89-4.83a15.1,15.1,0,0,1,.19-2.23c.12-.23,5.27-3.72,4.92-4.82s-1.25.08-1.25.08a4.09,4.09,0,0,1-1.65,2.25,6.72,6.72,0,0,0-2.78,2.73c-.63,1.23-.28,1.94,0,3.72s1.06,4.33.66,5.1a16.42,16.42,0,0,0-.65,3.41c-.17-.07-.36-.15-.59-.27-.84-.44-3-.86-4.18-1.49s-2.25-.34-2.82-.64-.69-.35-2.15-2.13c0,0,1.22-.19.41-2.75s1.85-3.65,1.39-5.1.43-3.08.54-4.14a7,7,0,0,0-.1-4.12c-.69-2.21,1-4.36,1-4.36A4.8,4.8,0,0,0,97.1,72.25Z"/><path class="cls-12" d="M76.13,46.58S83.73,52.19,84,56s-.59,5.62-.25,6.66,2,2.51.66,5.21,0,.24-3.47,5.28-1.91,5.12-5.17,9.3-6,5-5.12,7.84-1.29,6.12-1.46,10.56a30.84,30.84,0,0,0,.87,9.06l2,6.15c.31.94-12.54,2.41-13,2.17s-1.63-.4-3.25-5.4-2.27-3.76-5.9-14.92A117.09,117.09,0,0,1,44.65,74.6c-.72-5.42-1.25-5.08,2-11.37s7.13-12.47,10.57-13.59,10.55-5.85,14-5A13,13,0,0,1,76.13,46.58Z"/><path class="cls-13" d="M69.84,111.23c-.83-.61-1.67-.56-1.87-1s-.34-.4-1.45-.1-3,.72-3.28.86a15.14,15.14,0,0,1-1.61.36c-.12-.46-.4-1-.28-1.3a12.23,12.23,0,0,0,.83-3.62,17.41,17.41,0,0,0-.68-2.78c0-.14-.08-.27-.11-.39a26.33,26.33,0,0,0,4.81-.62c.45-.21,1.64-.6,2.63-.92l.11-.83-.21.07c-1.52.43-3.65,1.45-4.37,1.2A13.87,13.87,0,0,0,61.3,102a4,4,0,0,1,.16-.55c.28-.79.38-2.69.78-3.84s0-2,.21-2.54S62.67,94.46,64,93c0,0,.33,1,2.46,0,1.46-.7,2.53.11,3.45.5l0-.24.16-.42c-.54-.28-1-.73-1.46-.88s-1.93.33-2.15.25-1.48.86-1.84.1c.85-.84,1.15-1,1.36-1.6s1.39-1.08,1.69-1.94,1.34-.94,1.61-3.1a8.66,8.66,0,0,1,.48-1.76s1.24-.5,2.11-.92,1-.22,1.54,0a7,7,0,0,0,1,.22l.57-.64c-.72-.14-1.34-.34-1.49-.64-.37-.77-3.26,1-3.31,1a30,30,0,0,1,1.55-3l-1.42,1.32-2.46,6-.84-.89L65.91,84a3.16,3.16,0,0,0-1.25-1.24,13.58,13.58,0,0,1-1.72-2.46A17.43,17.43,0,0,1,59.81,76c-1.12-2.32-2.35-1.67-2.35-1.67a3.43,3.43,0,0,1,2.1,2.27c.38.77,2.18,3.66,3.25,4.4s2.19,2.82,3,4,1.67,2.67,1.81,2.92l-.07.18a31.64,31.64,0,0,1-3.2,3.46,11.89,11.89,0,0,0-2.61,3.33l-.3-.63-1.62-2.75s-1.85,0-3-.06S55.67,89.18,55,87.78s-1-2-1.34-2.16S51.28,81.93,51,81.25s-.94-3.06-1.45-4.13S44.92,75,44.92,75a37.91,37.91,0,0,0,3.55,2.17c.68.24,1.18,1.58,1.58,2.4s.9,2.49,1.29,3.32a28.06,28.06,0,0,0,2.37,3.93c1,1.31,1.43,3.6,1.71,4.18S56.68,92,58,92s1.48.52,2.06,1.72l1.14,2.37c0,.08-.06.15-.09.24a17,17,0,0,0-.58,7.58h0c-1.38-1-5-3.58-6-4.2a8.31,8.31,0,0,0-2.69-1.3c-1.43-.5-3.33-3.14-3.54-3.22s-2.67-3.07-2.67-3.07l.81,2.18s3.91,3.55,4.3,4.37,1.92,1.19,2.75,1.48,2,3.11,2.93,2.88,2-.3,2.26.23.4,1.39,1,1.6a2.22,2.22,0,0,1,1,1.82,7.76,7.76,0,0,1-.47,1.46c-.38,1.09-.46,1.34,0,3.61s-1.45,2.51-1.45,2.51c.34.71,3.38-.18,3.38-.18a7.55,7.55,0,0,1-.49-1.7,25.63,25.63,0,0,0,2.72-.74c.43-.21,2.87-.6,3.26-.79s1.5,2,3,1.3.91-1.46.91-1.46S70.67,111.84,69.84,111.23ZM70.21,83l-.37.92C70,83.56,70.08,83.25,70.21,83Z"/><path class="cls-14" d="M56.65,50.49c.94.43,1.75.21,2,.58s.41.32,1.44-.2,2.78-1.32,3-1.51a10.83,10.83,0,0,1,1.49-.68c.22.42.59.85.55,1.21a12.16,12.16,0,0,0-.07,3.71,16.86,16.86,0,0,0,1.23,2.58q.11.2.18.36A26.62,26.62,0,0,0,62,58.13c-.39.3-1.48.93-2.38,1.44l.06.84.2-.11c1.4-.73,3.27-2.17,4-2.07a14,14,0,0,0,3-.49,4.1,4.1,0,0,1,0,.57c-.11.83.18,2.71,0,3.91s.39,2,.32,2.54-.1.68-1.13,2.42c0,0-.53-1-2.4.49-1.29,1-2.51.41-3.48.22l0,.24-.07.45c.58.16,1.16.5,1.61.56s1.82-.72,2-.69,1.27-1.14,1.77-.48c-.65,1-.91,1.23-1,1.85s-1.13,1.34-1.25,2.25-1.12,1.19-.94,3.36a8.4,8.4,0,0,1-.11,1.82s-1.11.74-1.88,1.33a1.37,1.37,0,0,1-1.5.34,7.42,7.42,0,0,0-1,0l-.43.75c.73,0,1.38.06,1.58.32.52.68,3-1.59,3-1.63a31.09,31.09,0,0,1-.9,3.25L62.27,80l1.19-6.34,1,.7s1.32,1.62,1.62,2a3.24,3.24,0,0,0,1.48,1c.38,0,2.18,2,2.18,2a17.42,17.42,0,0,1,3.94,3.55c1.57,2,2.65,1.15,2.65,1.15A3.47,3.47,0,0,1,73.8,82.3c-.52-.68-2.88-3.14-4.08-3.64S67,76.35,66,75.37s-2.18-2.28-2.37-2.5l0-.18a31.21,31.21,0,0,1,2.43-4,12.1,12.1,0,0,0,1.87-3.8l.42.56,2.15,2.35s1.81-.37,2.9-.53S75,69.17,76,70.4s1.37,1.8,1.75,1.84,3.07,3.13,3.53,3.73,1.55,2.81,2.26,3.75,4.92,1.1,4.92,1.1a38.41,38.41,0,0,0-3.92-1.4c-.71-.09-1.47-1.3-2-2s-1.39-2.25-2-3a27.25,27.25,0,0,0-3.12-3.36c-1.24-1.08-2.14-3.23-2.53-3.74s-1.44-.73-2.71-.38-1.56-.21-2.38-1.26l-1.6-2.09a1.87,1.87,0,0,0,0-.25,16.88,16.88,0,0,0-1-7.54h0c1.55.67,5.67,2.47,6.7,2.89a8.29,8.29,0,0,0,2.89.72c1.51.2,3.9,2.39,4.13,2.43s3.24,2.45,3.24,2.45l-1.24-2s-4.55-2.67-5.11-3.4-2.12-.78-3-.89-2.56-2.64-3.46-2.22-1.89.71-2.26.24-.67-1.28-1.31-1.36-1.37-1.21-1.35-1.57a8.62,8.62,0,0,1,.16-1.52c.15-1.15.19-1.41-.69-3.55s.91-2.76.91-2.76c-.48-.62-3.27.87-3.27.87a7.65,7.65,0,0,1,.83,1.57c-.68.32-2.21,1-2.51,1.27s-2.69,1.19-3,1.44S57,48.78,55.7,49.79s-.59,1.61-.59,1.61S55.71,50.06,56.65,50.49Zm5.67,27.75.18-1C62.45,77.6,62.38,77.92,62.32,78.24Z"/><path class="cls-15" d="M76.13,46.58a13,13,0,0,0-4.91-2,8.62,8.62,0,0,0-4.6.76,6.27,6.27,0,0,1,3-.23,12.89,12.89,0,0,1,4.91,2s7.59,5.6,7.91,9.42-.59,5.61-.25,6.65,2,2.52.65,5.21,0,.24-3.47,5.28S77.43,78.8,74.18,83s-6.05,5-5.12,7.84-1.29,6.12-1.46,10.56a30.84,30.84,0,0,0,.87,9.06l2,6.15c0,.08,0,.15-.16.23,1.14-.26,1.87-.52,1.79-.76l-2-6.15a30.84,30.84,0,0,1-.87-9.06c.17-4.44,2.39-7.7,1.46-10.56s1.86-3.67,5.12-7.84,1.73-4.26,5.17-9.3,2.09-2.58,3.47-5.28-.32-4.16-.66-5.21.57-2.84.25-6.66S76.13,46.58,76.13,46.58Z"/><path class="cls-16" d="M105.11,157.18c0,.09.1.17.13.26A2.45,2.45,0,0,0,105.11,157.18Zm-17.8-14c2.37-.75,5.3-1.58,8.1-.88s3.73,2.12,5.85,2.12,8.34-.75,9-.75,6.59,1.12,7.09,1.12-8.1-3.2-10-2.73-3.91,1.93-7,.46S96.65,140,93.79,140s-4,1.49-7,1.49H80a29.25,29.25,0,0,1-6.19-1.32,5,5,0,0,1,.28-2.57,29.17,29.17,0,0,0,.66-5.62l-3.47-1.41s.66,3,1,5.55c-1.53.53-5.46,1.78-7.83,1.39-3-.5-5.48-.88-7.1-.38s-4.85,2.74-8,2.74-4.1.63-7.34.63-6.48,1.37-7,1.37S29.29,143,29.29,143s12.45-1.5,17.31-1.5,7.09-.5,8.34-1.74,3.86-1.25,5.35-1.25,4.49.5,6.48.5a32.19,32.19,0,0,0,5.61-.92,2.47,2.47,0,0,1-.26,1.54c-.93.94,1,4.11,1,5.86,0,1.55,3.12,2.17,5,3.48a19.56,19.56,0,0,1-2.88.63A9,9,0,0,0,71,151.16a11.17,11.17,0,0,1-5,2.25c-1.12,0-5.29,1.18-6.85,2.74s-7.72,3.23-7.72,3.23a42,42,0,0,1,5.73-1.12c1.37,0,5-2.49,6.85-3.11a21.29,21.29,0,0,1,5.48-1.25c1.37,0,3.11-2.61,5.1-2.61a21.74,21.74,0,0,0,4.93-.9,14.84,14.84,0,0,1,1.8,3.26,4.94,4.94,0,0,1,1.37,3.49c0,2.24,2,5.86,2.36,6.23s3.74,3.36,3.74,3.36A18.9,18.9,0,0,1,85.32,160c-.56-2.34-.87-4.36-1.25-5.74a43.58,43.58,0,0,1,5.11,1.89c.38.37,2.37.87,2.74,1.24s6.48,0,9.47-1c2.34-.78,3.38.43,3.72,1-1.64-3.22-6.52-1.11-8.58-1.11s-3.8.06-4.61-.75-3.73-1.62-6.22-3a6.91,6.91,0,0,0-3.25-1.08,12.76,12.76,0,0,0-2-2.65c-1.62-1.62-4.86-1.74-5.61-3.74a7.63,7.63,0,0,1-.44-2.14S85,143.94,87.31,143.2Zm-41-15.77a13.73,13.73,0,0,1,4.6-1c1.75,0,6.55-.71,6.55-.71l2.45-3s-7.38,1.83-10.12,2.45a54.32,54.32,0,0,0-6.72,2.26H30.66l-1.75,1h9.22A26,26,0,0,0,46.35,127.43Z"/><path class="cls-17" d="M105.11,156.65a2.1,2.1,0,0,1,.13.26A1.68,1.68,0,0,0,105.11,156.65ZM87.31,142.2c2.37-.75,5.3-1.58,8.1-.88s3.73,2.12,5.85,2.12,8.34-.75,9-.75,6.59,1.12,7.09,1.12-8.1-3.2-10-2.73-3.91,1.93-7,.47S96.65,139,93.79,139s-4,1.49-7,1.49H80a28.63,28.63,0,0,1-6.19-1.33,5,5,0,0,1,.28-2.56,29.17,29.17,0,0,0,.66-5.62l-3.47-1.41s.66,3,1,5.55c-1.53.53-5.46,1.78-7.83,1.39-3-.5-5.48-.88-7.1-.38s-4.85,2.74-8,2.74-4.1.62-7.34.62-6.48,1.37-7,1.37S29.29,142,29.29,142s12.45-1.5,17.31-1.5,7.09-.5,8.34-1.74,3.86-1.25,5.35-1.25,4.49.5,6.48.5a33.14,33.14,0,0,0,5.61-.91,2.45,2.45,0,0,1-.26,1.53c-.93.94,1,4.11,1,5.86,0,1.55,3.12,2.17,5,3.48a19.56,19.56,0,0,1-2.88.63A9,9,0,0,0,71,150.16a11.15,11.15,0,0,1-5,2.24c-1.12,0-5.29,1.19-6.85,2.74s-7.72,3.24-7.72,3.24a42,42,0,0,1,5.73-1.12c1.37,0,5-2.49,6.85-3.11a21.29,21.29,0,0,1,5.48-1.25c1.37,0,3.11-2.61,5.1-2.61a21.74,21.74,0,0,0,4.93-.9,14.55,14.55,0,0,1,1.8,3.27,4.91,4.91,0,0,1,1.37,3.48c0,2.24,2,5.85,2.36,6.23s3.74,3.36,3.74,3.36A18.9,18.9,0,0,1,85.32,159c-.56-2.34-.87-4.36-1.25-5.74a44,44,0,0,1,5.11,1.88c.38.38,2.37.88,2.74,1.25s6.48,0,9.47-1c2.34-.79,3.38.43,3.72,1-1.64-3.22-6.52-1.11-8.58-1.11s-3.8.06-4.61-.75-3.73-1.62-6.22-3a6.91,6.91,0,0,0-3.25-1.08,12.76,12.76,0,0,0-2-2.65c-1.62-1.62-4.86-1.74-5.61-3.74a7.63,7.63,0,0,1-.44-2.14S85,142.94,87.31,142.2Zm-41-15.3a13.73,13.73,0,0,1,4.6-1c1.75,0,6.55-.7,6.55-.7l2.45-3s-7.38,1.83-10.12,2.46-5.23,1.74-6.72,1.79H30.66l-1.75,1h9.22A19,19,0,0,0,46.35,126.9Z"/><path class="cls-18" d="M55.93,113.76s-2.29-10.21-2.32-15.62,1.32-5.51.59-10.58-.38-9.33-1.81-13.71-1.63-9.1-.19-11.93,4.49-6.94,5.3-8.53a59.89,59.89,0,0,1,3.81-5.5L52.8,50.66c-4.9,1.59-11,4.59-12.87,10.41s-4.42,7-4.8,11.48-2.72,12.19-1.22,14.7,2.24,3.3,2.39,5.21S35.87,95,37.39,95.8s1.35.26,2.27,3.07,1.19,3.65,1.66,5.11,1.53,4.69,1.73,5.32,2.72,4.08,3.68,4.57S55.93,113.76,55.93,113.76Z"/><path class="cls-19" d="M59.26,112.06S57,101.84,57,96.43s1.32-5.51.59-10.58-.38-9.33-1.81-13.71S54.1,63,55.54,60.21s4.49-6.94,5.3-8.53a59.89,59.89,0,0,1,3.81-5.5L56.14,49c-4.9,1.6-11,4.6-12.87,10.41s-4.42,7-4.8,11.48S35.74,83,37.25,85.54s2.24,3.31,2.39,5.22-.43,2.56,1.09,3.34,1.35.25,2.27,3.06,1.18,3.65,1.66,5.11l1.73,5.32c.21.63,2.72,4.08,3.68,4.57S59.26,112.06,59.26,112.06Z"/><path class="cls-20" d="M55,61.49a17.78,17.78,0,0,1-3.71,5.28c-2.16,1.86-2.06,6.78-1.86,8.8a34.34,34.34,0,0,0,1.12,7.36c.82,2.5,2.27,2.72,3.09,9.49s1.92,8.71,1.64,9.27c-.17.32,1.36,2.3,2.68,3.93a62.88,62.88,0,0,1-1-9.19c0-5.41,1.32-5.51.59-10.58s-.38-9.33-1.81-13.71c-1.23-3.77-1.55-7.8-.69-10.65Z"/><path class="cls-21" d="M53.9,98.52a3.29,3.29,0,0,1-1.07-2.19c0-.75-1.13-1.32-1.13-2.44s-.93-2-1.18-3.13a8.12,8.12,0,0,0-1-2.88c-.4-.41-.78-1.22-1.31-1.76a3.35,3.35,0,0,1-1.07-2.57,11.37,11.37,0,0,1,.54-2.89c.36,0,.73,0,1.16-1.21H51c.93,1.16-.43.53-.43.53a3.4,3.4,0,0,1-.93-.08l.26-5.18s0-3.36-.4-3-.08,1.39-.63,2.14,0,2.44,0,3.32c0,.6.06,1.76.1,2.43-.27,0-.62.1-1.07.1-.72,0-.4.41-1.22.41s-1.05-.08-1.64-.11a8.37,8.37,0,0,1-.36-2.27c0-1.5.87-4,.87-5.14s.63-.75.63-1.81.47-1.47,1.19-2.19,0-2.13,0-2.88-.09-1.41.38-1.88.31-2.38.31-2.38,0,1.06-.69,1.06-.75,4.39-.75,5.08-.75,1.87-1.38,3.5-1.5,9-1.5,9a6.87,6.87,0,0,1-2,0h0a4.26,4.26,0,0,0-1.2.23h-.6c.2-1.3.65-4.29.65-5.3a31.24,31.24,0,0,1,1.62-6.85c.49-1.12,2.12-3.12,2.12-4.61s4.08-7.64,5.79-9.35c0,0-5,4.11-6,7.48a19.28,19.28,0,0,1-1.94,4.67,7.8,7.8,0,0,0-.93,2.87c0,.74-1.06,2.55-1.06,3.11s-.56,2.56-.56,3.62a37.87,37.87,0,0,1-.69,4.36h-.12a13.4,13.4,0,0,0-1.54.24c-.68.12-.17,1.76-.17,1.76h.77A4.45,4.45,0,0,0,39.48,82c.31-.31.74-.07,1.12-.44a.9.9,0,0,1,.39-.21h0s.48,3.33.85,4.7a15.12,15.12,0,0,1,.5,4,4.16,4.16,0,0,0,.75,2.49c.19.19,1.62,1.5,2.24,2.13s0,3.21,0,4,.73,1.7.73,2.07S48,102.14,48,102.45s-.13,3.2.53,3.87,1-.5,1-.5a2.31,2.31,0,0,1-.62-1.44,4.8,4.8,0,0,0-.44-2.49c-.37-.37-.81-1.49-1.49-1.49s-.75-.81-.75-1.56V95.58a11,11,0,0,0-1.33-2.38c-.56-.56-1.82-1.57-1.82-2.32s-.43-.62-.43-2.63.18-2.25-.13-3.57A13,13,0,0,1,42,82a5.38,5.38,0,0,0-.13-1c.48,0,1.07,0,1.82,0,2,0,1.06-.12,2.07-.12.32,0,.63,0,1,0h0a3.67,3.67,0,0,0,0,4.18c1.51,2.13,2.57,3.57,2.57,4.14s1.63,3.31,1.63,3.63.69,3.2.69,3.2l1.13,1.18a16.77,16.77,0,0,1,.81,2.19c0,.32-.66,3.55,0,4.2a8.11,8.11,0,0,1,.25-2.75C54.15,99.78,54.52,99.15,53.9,98.52Z"/><path class="cls-22" d="M56.76,101.22c.28-.55-.81-2.51-1.63-9.27S52.85,85,52,82.46a33.78,33.78,0,0,1-1.13-7.37c-.19-2-.3-6.93,1.87-8.79a11.81,11.81,0,0,0,1.81-2A12.15,12.15,0,0,1,55,61.49h0a17.78,17.78,0,0,1-3.71,5.28c-2.16,1.86-2.06,6.78-1.86,8.8a34.34,34.34,0,0,0,1.12,7.36c.82,2.5,2.27,2.72,3.09,9.49s1.92,8.71,1.64,9.27c-.17.32,1.36,2.3,2.68,3.93-.16-1-.32-2-.47-2.94C57,101.94,56.68,101.38,56.76,101.22Z"/><path class="cls-23" d="M120.52,94.15c-1.38.44-4.45.37-5.86,1.9s.21,3-2,4.76a33.62,33.62,0,0,1-6.39,3.88c-.67,1.57-1.17,2.72-1.35,3.08-.75,1.48-6.82,20.71-6.82,20.71s-.67,2.18-1.18,3.75a16.39,16.39,0,0,0,3.22-1.69c1.6-1.24,9.47-7.92,12.47-9.73s3.92-4.1,3.29-7.71-1.63-6.41.06-8.48a68.47,68.47,0,0,0,4.91-7.4,3.6,3.6,0,0,0,.34-2S121.9,93.69,120.52,94.15Zm6.87-10.25c-.25-3.61.13-8.81-2.71-13-1.54-2.23-3.15-4.73-4.52-7-1.39.84-2.78-.44-2.2,2.3.61,2.95,1.22,13,.3,14.82a10.6,10.6,0,0,1-1,1.5,25.57,25.57,0,0,1,2.56,4.22c.41,1.25,2.68,4.33,2,5.86s-.12,1.35,1.44.85S127.64,87.51,127.39,83.9Z"/><path class="cls-24" d="M130.79,102.43l.73-2.09s.53-3.88,1.39-4.74,0-1.39.47-3.24,1.55-6.76,1.55-6.76l-1,1L132.34,91a10.88,10.88,0,0,0-1.28,5c0,2-1.26,4.43-2,5.71-1.08-.55-1.15-1.21-3.65-1.21h-5.33a36.61,36.61,0,0,1,3-3.81c1.27-1.27,1.62-5.09,1.62-5.09s2.66-4.85,2.66-6.58,1-5.55,1-6.59a16.91,16.91,0,0,1,1.74-5.31l3-3.12a12.22,12.22,0,0,0-6.35,9c-1.16,6.7-.81,6.24-2,9.36A37.64,37.64,0,0,1,122.51,94c-1,2-3.9,4.91-5.17,6.13a10.48,10.48,0,0,1-1.41-.47l-1.65,1.77s1.18,1.7,4.54,1.12c1.4-.24,2.49-.38,3.39-.46,0,0-.28,4.28-1.2,5.2s-2.19,5.33-2.19,5.89-.12,3.93-.12,3.93a17,17,0,0,0-.69,3,13.17,13.17,0,0,1-.7,2.77l-.11,4.85-.12,2a28.93,28.93,0,0,0,1.39-5.55c0-1.5,1.5-6,1.5-7.86s.12-5.66,1-6.58a5.69,5.69,0,0,0,1.85-3.59,23.4,23.4,0,0,1,.84-4.14h1.36a7.15,7.15,0,0,1,4.39,1.5c1,1,2.2.11,3.07,1a2.17,2.17,0,0,0,2.13.4l-.93-.92S132.2,103.09,130.79,102.43ZM120.55,77.57s-2.06-6.69,4.85-13.75c0,0-5.08,4.16-5.89,6a22.08,22.08,0,0,0-1.16,5.08l.12,2Zm-13.7,44.84c-1.93,9.7-.58,16.06-.58,16.06V131c0-.69.81-5.55,1.27-6s1.23-9,1.23-9S108.77,112.7,106.85,122.41Z"/><path class="cls-25" d="M105.45,69.34l7.15,10.25c1.51,2.16,4.25,6,4.66,7.24s2.68,4.33,2,5.86-.13,1.35,1.43.85,4.39-6,4.14-9.64.13-8.81-2.72-13a130.5,130.5,0,0,1-7.31-11.81c-1.3-2.58-1.28-5.35-3.63-6.55s-2.34-2.58-3.54-4.5-7-9.48-12.52-9.42-12.46,1.41-18,2.06a121.89,121.89,0,0,1-19,.07s6.29,4.07,12.28,5.47,17,9.93,18.34,10.64,11.87,8.65,12.91,9.18A30.08,30.08,0,0,1,105.45,69.34Z"/><path class="cls-26" d="M111.68,78.28a87.38,87.38,0,0,0-4.8-9.18c-2-3-4.74-7.28-6.47-8.16s-5.91-2.22-6.88-2.72-.87.17-2.17-2.06-1.33-3-2.27-2.72-1,1-2.52-1-2.26,0-2.94-1.59-2.56-.43-3.45-3.14-3.5-4.74-8.43-4.64-12.2-.64-13.65-2.25c0,0,.81,3.2,2.79,3.25s3.35.89,3.76,2.13,2,1.65,4.6,3,2.87,1.2,7.22,3.42,7.65,2.76,10.07,4a36.72,36.72,0,0,1,7.9,5.85c2.2,2.16,6.31,4.86,6.82,6.43s.67,3.12,3,5.12S110.77,77,111.68,78.28Z"/><path class="cls-27" d="M106.88,69.1c-2-3-4.74-7.28-6.47-8.16s-5.91-2.22-6.88-2.72-.87.17-2.17-2.06-1.33-3-2.27-2.72-1,1-2.52-1-2.26,0-2.94-1.59-2.56-.43-3.45-3.14-3.5-4.74-8.43-4.64-12.2-.64-13.65-2.25a7,7,0,0,0,1.13,2.3,43.9,43.9,0,0,0,11.46,1.17c4.93-.11,7.54,1.93,8.43,4.64s2.76,1.57,3.45,3.14,1.45-.47,2.93,1.58,1.59,1.33,2.53,1,1,.49,2.27,2.72,1.2,1.57,2.17,2.06,5.15,1.84,6.88,2.72,4.44,5.13,6.46,8.16a63.69,63.69,0,0,1,3.51,6.42,6.37,6.37,0,0,1,2.36,1.54A87.38,87.38,0,0,0,106.88,69.1Z"/><path class="cls-28" d="M32.86,108.54s7.63,9.63,14,12.86,13.53,6.83,15,7.77a54.45,54.45,0,0,0,6.54,3.72c1,.28,3.63.86,4.41,1.85a17,17,0,0,1,1.27,2.09c.37.51,1.25.71,2.47.31s1.23-1.08,3-1a31.26,31.26,0,0,0,8.55-1.5c3-1,8-2.83,9.59-4.08s9.47-7.92,12.47-9.73,3.93-4.1,3.29-7.71-1.63-6.41.06-8.48a67,67,0,0,0,4.91-7.4,3.6,3.6,0,0,0,.34-2s.65-1.51-.73-1-4.45.37-5.86,1.9.21,3-2,4.76a40.47,40.47,0,0,1-14.27,6.78c-6.75,1.74-11,3.79-14.11,4.21s-13.57,1.67-19.8.57-21.11-4.87-21.11-4.87Z"/><path class="cls-29" d="M38.22,111.1s3.37,1,7.65,1.94,10,1.63,13,.64,4.68.54,7.75.14,8.9.39,13.86-.54a94.44,94.44,0,0,0,11.92-3.19c2.62-.86,15.68-6.32,18.43-10a26.68,26.68,0,0,1-6.59,3.47c-3.38,1.1-5.2,1.62-7.68,2.43s-.88.82-4.57,1-4.22.61-8.09,1.87-7.31,2.61-9.67,2.84-7.42,1.46-10.94-.32-4.59-2.86-6.17-3.15-4.15.36-5-1.06-.79-1.73-3.75-2.14-2.44-.16-4-1-.13-1.67-6.16-1.92-7-1.91-9-1.78a14.44,14.44,0,0,0-3.26.52l7.36,9.5A26.3,26.3,0,0,1,38.22,111.1Z"/><path class="cls-30" d="M92.23,109.5a92.75,92.75,0,0,1-11.92,3.19c-5,.93-10.79.16-13.86.55s-4.72-1.13-7.75-.15-8.74.33-13-.64S38,110.51,38,110.51a26.79,26.79,0,0,0-5-.74l-7-9-.21.06,7.36,9.5a26.3,26.3,0,0,1,5,.75s3.37,1,7.65,1.94,10,1.63,13,.64,4.68.54,7.75.14,8.9.39,13.86-.54a94.44,94.44,0,0,0,11.92-3.19c2.62-.86,15.68-6.32,18.43-10a29.19,29.19,0,0,1-3.27,2A86.43,86.43,0,0,1,92.23,109.5Z"/><path class="cls-31" d="M50.82,127.09s-5.64-1.33-9-2-6.27-2.14-11.73-1.38-18.67-5.54-20.67-8-5.24-6.23-5.73-8.49-.6-3.14-1.54-3.62-2.85-1.86-1.84-2.49a2.68,2.68,0,0,0,1.06-3.07C1,96.91.8,94.91.83,88.84S.38,72.39,4.06,67.68,10,59.07,11,58.4a7.8,7.8,0,0,1,3.21-.74l2.82,13,1.79,10.14S17.7,86.64,23,95.26s14.51,19.82,14.51,19.82,7.83,6.59,8.94,7.56S51.66,127.29,50.82,127.09Z"/><path class="cls-32" d="M16.81,46.2s-6.24,7.43-5.12,13.12.62,5.79,1,8.51a79.43,79.43,0,0,0,1.61,8.68c.54,1.65,2.72,5,3.72,8.06S20.12,93,22.16,97a58.62,58.62,0,0,0,6.77,10c1.58,1.85,4.38,5.06,5.7,6.51s2.94,2.74,5,5a7.67,7.67,0,0,0,4.78,2.39s-5.67-5.81-7.06-7.3-4.37-8.43-6.05-9.88S28,101.91,26.78,98s-2.42-3.33-3.39-5-4-5.66-3.79-8.65,1.71-7,1.07-9,.1-1.18-.2-4.9a54.9,54.9,0,0,1-.31-6.14c0-1.64.71-2.47-.2-5.26a58.94,58.94,0,0,1-1.87-8.18C17.85,49.2,17.45,45.39,16.81,46.2Z"/><path class="cls-33" d="M40.67,118.22c-2.06-2.24-3.69-3.53-5-5s-4.12-4.65-5.7-6.5a59,59,0,0,1-6.77-10c-2-4-3.12-9.41-4.12-12.47s-3.18-6.42-3.71-8.06a77.52,77.52,0,0,1-1.62-8.69c-.4-2.71.11-2.82-1-8.51-.93-4.67,3.11-10.51,4.59-12.45-.15-.4-.32-.57-.51-.33,0,0-6.24,7.43-5.12,13.12s.62,5.79,1,8.51a79.43,79.43,0,0,0,1.61,8.68c.54,1.65,2.72,5,3.72,8.06S20.12,93,22.16,97a58.62,58.62,0,0,0,6.77,10c1.58,1.85,4.38,5.06,5.7,6.51s2.94,2.74,5,5a7.67,7.67,0,0,0,4.78,2.39l-.72-.75A7.56,7.56,0,0,1,40.67,118.22Z"/><path class="cls-34" d="M117.56,26.57a33,33,0,0,0,6.36,5.72c3.51,2.28,8.23,5,9.67,6.51s1.89,5.52,2.25,6.63.86,1.5,1.31,2.85a5.47,5.47,0,0,0,1.31,2.15c.54.81.56-.13.83,1.7s0,2.38.77,2.8,1.4.85,2.07,2.89.06,3.7,1.43,4.41,3.24-.26,4.88,5.35,3,11.76,3.07,14.18.74,3.84.36,5.28-1.86,5.39-4.05,6.71-8,6.51-8.74,8.71.09-3.37.27-4.6,3.64-4.84,5-6.29,1-2.07,2.88-2.68,1.91-.9.69-3.78-1.08-5.61-1.44-8a33.86,33.86,0,0,0-1.7-6.53c-1-3.09-2.36-3.49-3.22-6.12S141,63.38,139.87,61s.33-2.87-2.68-5.22-1.87-2-5-5.07-5.13-6.82-7.77-10-3.28-3.15-4.15-5S115.5,29.45,117.56,26.57Z"/><path class="cls-35" d="M143.56,62.23c-1.37-.71-.77-2.38-1.43-4.41s-1.26-2.48-2.07-2.89-.5-1-.77-2.8-.29-.89-.83-1.7a5.47,5.47,0,0,1-1.31-2.15c-.45-1.35-1-1.75-1.31-2.85s-.81-5.08-2.25-6.63-6.16-4.23-9.67-6.51a33,33,0,0,1-6.36-5.72,3.08,3.08,0,0,0-.55,1.48,31.3,31.3,0,0,0,5.46,4.71c3.51,2.28,8.22,5,9.66,6.51s1.9,5.52,2.26,6.63.86,1.5,1.3,2.85A5.72,5.72,0,0,0,137,50.91c.54.8.57-.14.83,1.7s0,2.37.77,2.79,1.41.86,2.07,2.89.06,3.71,1.44,4.41,3.24-.26,4.87,5.35,3,11.76,3.08,14.19.73,3.84.35,5.27-1.85,5.39-4,6.71a39.76,39.76,0,0,0-7.42,6.64c-.18,1.56-.27,2.85.13,1.6.69-2.2,6.55-7.39,8.74-8.71s3.67-5.27,4.05-6.71-.32-2.85-.36-5.28-1.43-8.58-3.07-14.18S144.94,62.93,143.56,62.23Z"/><path class="cls-36" d="M104.53,140.38s3.71-5.45,7.59-9.93,6.85-7.57,10.58-10.22,10-7.36,10.29-9.17.85-2.27.08-4.62-1-3.83,0-4.53,1.81.3,2.22-2.22.45-5.36-.77-10.78-2.84-8.94-2.63-15.65.4-16.5.4-16.5,2.51,3.78,4.16,6.94a57.77,57.77,0,0,1,4.2,14A49.18,49.18,0,0,1,141,89.29c-.33,3-2.47,9.43-1.5,12.4s1.77,4.94.83,6.78-2.43,3.26-3.06,4.49-5.14,8.59-7.67,10.92-5.75,6.53-8.22,8.63-10.3,9.38-18.46,9.57Z"/><path class="cls-37" d="M105.42,116.22c-.83,2.11-1.73,4.18-1.89,4.49a11.91,11.91,0,0,1-1.88,1.36A7.88,7.88,0,0,0,99,124.58c-.72,1.36-1.28,1.55-3.35,2.26l-.87.28c-2.69.82-3.36,1.59-4,2.9a2,2,0,0,1-1.13.65c-1.48.48-3.89.73-5.59,1.28-1.91.61-5,1.8-6.1,2.24-.56-1.79-1.54-3.62-1.81-4.45-.21-.64-.5-1.32-.81-2.06a16.92,16.92,0,0,0,5.07-1c.91-.29,1.76-.88,2.66-1.17A24.48,24.48,0,0,0,86.44,124c.47-.22.8-.22,1.1-.5s.6-.35.44-.86a1.84,1.84,0,0,1,.14-1.4A3.41,3.41,0,0,1,89.71,120c1.36-.49,3.5-1.7,4.18-2.87a38.82,38.82,0,0,0,1.37-4.29s-1.36,3.38-1.73,4.09c-.21.55-2.9,2.33-4,2.63-1.55.58-2.65,1.8-2.31,3.25a4.16,4.16,0,0,1-1.3.77c-.82.35-1.92.74-3.1,1.12l-2.74.88a20.68,20.68,0,0,1-3.83.93,9.22,9.22,0,0,1-1.38,0c-.17-.44-.33-.89-.49-1.38a31,31,0,0,1-.82-3.68A13,13,0,0,1,76,120c1.42-.66,2.66-1.2,3.22-2.17l.11-.15c.56-1.13,2.65-4.15,2.65-4.16a34.41,34.41,0,0,0-3.07,4.15,8.09,8.09,0,0,1-2.9,1.76c-1.26.56-2.44,1-2.61,1,0-.11,0-.24-.09-.35a28.8,28.8,0,0,0-2.82-4.83s1,2,1.45,3.31a8.83,8.83,0,0,1-3.12-.38,25.86,25.86,0,0,1-5.06-3c.09.06,3,2.73,5.06,3.41a13.77,13.77,0,0,0,3.32.6,43.66,43.66,0,0,0,.8,4.76l1.6,4.91a5.12,5.12,0,0,1-.74-.23c-.25-.12-1-.92-1.43-1.12a13.19,13.19,0,0,1-2.2-2c-.59-.67-2.7-2.55-3-3s-1.15-.59-2.44-.86a4.8,4.8,0,0,1-1.91-.75c-.6-.3-.71-.92-1.3-1.22s-1.38,0-2.23.17a3,3,0,0,1-1.75-.43l1,.7a15,15,0,0,1,2.78.07c.35.18,1,1.31,2.14,1.87a21.47,21.47,0,0,0,3,.82c.45.23,2.06,1.91,2.21,2a17.54,17.54,0,0,0,4.3,3.7,7.24,7.24,0,0,1,1.73,1.15,7.24,7.24,0,0,1-.5,3.47c-.44-.3-1.12-.77-1.9-1.34-1.36-1-3.14-1.06-4.4-1.69s-3.54-1.14-3.91-1.54-.08-1.19-.27-1.79-.44-2.41-.5-2.61l-.34-1a13.73,13.73,0,0,1,.4,2,3.88,3.88,0,0,0,.08,1.11c.1.3.3.8.2,1a1,1,0,0,0,0,.57s0,.11-.85-.32a11,11,0,0,1-2.43-1.33,3.88,3.88,0,0,0-1.82-1.11c-1.14-.46-2-.48-2.82-.91a6.3,6.3,0,0,1-2.34-1.51,3.87,3.87,0,0,0-2-1.09c-.35-.19-1.2-.82-1.7-1.08s-1-.7-1.53-.63a4.08,4.08,0,0,1-2.47-.5c-.48-.45-1.64-1.85-2-2.24s-2.78-3.06-2.78-3.06,3.94,5.67,5.53,5.77,2.48.22,3,.84,2.35.93,3.93,2.38,5.67,2.21,6.41,3,3.67,2,3.86,2.53,3.12,1.52,4.78,2.1,3.92,1.35,4,1.59a18.69,18.69,0,0,0,1.48,1.77,12.26,12.26,0,0,1-.6,1.16h0c.4.63.55,1.06.82,1.45s1.26.71,2.48.32c.88-.29,1.13-.72,1.85-.92a5.55,5.55,0,0,0-.11-.89c1-.4,4.22-1.64,6.15-2.27,1.51-.49,3.92-.74,5.59-1.27a3,3,0,0,0,1.78-1.2c.67-1.22.47-2,3.15-2.9l0-.17.87-.28c2-.63,2.67-.55,3.51-2.23a9.34,9.34,0,0,1,2.59-2.38c1-.69,1.64-1,2.06-1.65.21-.42,1-2.2,1.85-4.42.44-1.11.77-2.21,1-3.12a3.13,3.13,0,0,0,.09-1.94h0A23.42,23.42,0,0,1,105.42,116.22Z"/><path class="cls-38" d="M9.3,99.47a9.25,9.25,0,0,0,4.33-1.8c.35.9.95,2.47,1.44,4.07.73,2.41,3.94,4.6,4.16,4.82s1.5,1.94,2.41,2.85,4.9,1.76,5.48,2.34,5.12,3.87,5.41,4.16,5.19,4.68,5.19,4.68-5.55-6.07-8.19-8-4.34-1.64-6.79-4.09l-4.35-4.35c-.84-.84-2.45-1.49-2.45-3.32A8,8,0,0,0,14.59,97a10.51,10.51,0,0,1,3.33-.25c1.75,0,1.39-.36,2.41-.73a5.4,5.4,0,0,1,1.9-.31l-.37-.87s-1.09.18-1.39.18a1.13,1.13,0,0,0-1,.4,2.15,2.15,0,0,1-.81.55l.81-.55s-.64-3-.64-3.78-.59-3.22-.59-4.39a18.24,18.24,0,0,0-1.53-4.89c0,.36.58,3.72.58,4A17.57,17.57,0,0,0,18,90.78,26.68,26.68,0,0,1,18.7,96a6.73,6.73,0,0,1-2.39.3c-2.17,0-2.36,0-3,.62h0l-.15.14a3.58,3.58,0,0,1-1.2.69A26.44,26.44,0,0,1,10.68,93c0-1.17-.41-6-.41-6V79.67s.05-2.85.05-4.89a19.78,19.78,0,0,1,1.39-5.48s-1.83,3-1.83,3.8-.22,4.53-.22,4.53L9.27,82.3s-.08,4-.08,7.29,1.58,8.89,1.59,8.92a8,8,0,0,1-1.67.23c-.83,0-2.72.46-4.67.64,0-.64.09-1.49.09-2.13a8.09,8.09,0,0,0-.79-3.32c-.47-1.11-.47-5.29-.47-6.71v-8s1.57-8.92,4-12.21c0,0-3.95,4.68-3.95,10.09s0,7.45,0,7.45V89.1s0,3.36,0,3.94.59,2.27.59,2.56S3.36,97.87,3.06,99a2.06,2.06,0,0,0-1.12.46,1.2,1.2,0,0,1-.67.77v.21h.28l-.68.44c-1,.63.89,2,1.84,2.49a2.22,2.22,0,0,1,.34.22h0c.8-.8,2.08-1.79,2.74-2.44a3.7,3.7,0,0,1,.4-.35c.08,1.17.33,3.92.84,4.44a30.71,30.71,0,0,1,3.58,5.18,12,12,0,0,0,2.19,3.95c1.1,1.09,5.08,2.37,5.85,3.14s4.13,1.35,5.11,2.34,4.82,2.48,4.82,2.48l2.78.37L21.21,118c-3.44-1.61-7-2.19-8.19-4.31s.15-1.53-1.17-3.73-2.7-3.14-2.7-4.53-1.53-2.34-1.88-3.65v-1.8A8.29,8.29,0,0,1,9.3,99.47Z"/><path class="cls-39" d="M8.71,99.71A9.21,9.21,0,0,0,13,97.91c.36.9,1,2.47,1.45,4.07.72,2.41,3.94,4.6,4.16,4.82s1.5,1.94,2.41,2.85S26,111.4,26.54,112s5.11,3.87,5.41,4.16,5.18,4.68,5.18,4.68-5.55-6.06-8.18-8-4.35-1.64-6.79-4.09l-4.35-4.35c-.84-.84-2.45-1.5-2.45-3.32A7.9,7.9,0,0,0,14,97.26,10.42,10.42,0,0,1,17.33,97c1.76,0,1.39-.36,2.41-.73A5.47,5.47,0,0,1,21.65,96l-.37-.87s-1.1.17-1.39.17a1.14,1.14,0,0,0-1,.41,2.18,2.18,0,0,1-.8.55l.8-.55s-.64-3.06-.64-3.78-.58-3.22-.58-4.39a18.24,18.24,0,0,0-1.53-4.89c0,.36.58,3.72.58,4A17.57,17.57,0,0,0,17.41,91a26.37,26.37,0,0,1,.7,5.21,6.56,6.56,0,0,1-2.38.31c-2.17,0-2.37,0-3,.62h0l-.14.14a3.41,3.41,0,0,1-1.2.68,26,26,0,0,1-1.29-4.77c0-1.17-.83-6-.83-6V79.91A38.08,38.08,0,0,0,9.73,75a19.78,19.78,0,0,1,1.39-5.48s-1.82,3-1.82,3.8-.22,4.53-.22,4.53l1.19,4.67v7.53s0,8.23,0,8.26a7.23,7.23,0,0,1-1.54.21c-.76,0-2.52.42-4.32.59,0-.6.08-1.38.08-2a7.67,7.67,0,0,0-.72-3.07c-.44-1-.48-6.21-.48-6.21v-8.4s1-8.92,3.4-12.21c0,0-3.95,4.68-3.95,10.09a33.25,33.25,0,0,0,.55,7.45v4.53s-.55,3.36-.55,4,.59,2.26.59,2.55-.53,2.27-.83,3.41a2.06,2.06,0,0,0-1.13.46c-.08.28-.21.54-.08.77v0H1a4.12,4.12,0,0,1-.68.68c-1,.63.89,2,1.84,2.49a2.7,2.7,0,0,1,.33.22h0c.8-.8,2.09-1.79,2.75-2.45a5,5,0,0,1,.39-.34c.09,1.17.33,3.92.85,4.43A31.22,31.22,0,0,1,10,110.67a11.86,11.86,0,0,0,2.19,4c1.1,1.09,5.08,2.37,5.85,3.14s4.12,1.35,5.11,2.34S28,122.58,28,122.58l2.78.37L20.62,118.2c-3.43-1.61-7-2.19-8.18-4.31s.15-1.54-1.17-3.73-2.7-3.14-2.7-4.53S7,103.29,7.27,102v-1.8A2.55,2.55,0,0,1,8.71,99.71Z"/></g></g></svg>