<svg xmlns="http://www.w3.org/2000/svg" xmlns:xlink="http://www.w3.org/1999/xlink" viewBox="0 0 172.11 95.06"><defs><style>.cls-1{fill:url(#linear-gradient);}.cls-2{fill:url(#linear-gradient-2);}.cls-3{fill:url(#linear-gradient-3);}.cls-4{fill:url(#linear-gradient-4);}.cls-5{fill:url(#linear-gradient-5);}.cls-6{fill:url(#radial-gradient);}.cls-7{fill:url(#radial-gradient-2);}.cls-8{fill:#fff;}.cls-9{fill:url(#radial-gradient-3);}.cls-10{fill:url(#radial-gradient-4);}.cls-11{fill:url(#radial-gradient-5);}.cls-12{fill:url(#radial-gradient-6);}.cls-13{fill:url(#radial-gradient-7);}.cls-14{fill:url(#radial-gradient-8);}.cls-15{fill:url(#radial-gradient-9);}.cls-16{fill:url(#radial-gradient-10);}.cls-17{fill:url(#radial-gradient-11);}.cls-18{fill:url(#radial-gradient-12);}.cls-19{fill:url(#linear-gradient-6);}.cls-20{fill:url(#linear-gradient-7);}.cls-21{fill:url(#linear-gradient-8);}.cls-22{fill:url(#linear-gradient-9);}.cls-23{fill:url(#linear-gradient-10);}.cls-24{fill:url(#linear-gradient-11);}.cls-25{fill:url(#linear-gradient-12);}.cls-26{fill:url(#linear-gradient-13);}.cls-27{fill:url(#linear-gradient-14);}.cls-28{fill:url(#linear-gradient-15);}</style><linearGradient id="linear-gradient" x1="-397.77" y1="665.76" x2="-349.69" y2="665.76" gradientTransform="translate(-288.12 -591.24) rotate(-64.02)" gradientUnits="userSpaceOnUse"><stop offset="0.4" stop-color="#87a800"/><stop offset="0.54" stop-color="#83a300"/><stop offset="0.71" stop-color="#779400"/><stop offset="0.9" stop-color="#637c00"/><stop offset="1" stop-color="#566b00"/></linearGradient><linearGradient id="linear-gradient-2" x1="-397.02" y1="667.52" x2="-354.25" y2="667.52" gradientTransform="translate(-288.12 -591.24) rotate(-64.02)" gradientUnits="userSpaceOnUse"><stop offset="0" stop-color="#87a800"/><stop offset="0.19" stop-color="#8bad00"/><stop offset="0.42" stop-color="#97bc00"/><stop offset="0.68" stop-color="#abd400"/><stop offset="0.94" stop-color="#c6f600"/><stop offset="1" stop-color="#cdff00"/></linearGradient><linearGradient id="linear-gradient-3" x1="155.4" y1="15.58" x2="131.76" y2="60.04" gradientUnits="userSpaceOnUse"><stop offset="0" stop-color="#698200"/><stop offset="0.21" stop-color="#83a200"/><stop offset="0.51" stop-color="#a4cc00"/><stop offset="1" stop-color="#cafc00"/></linearGradient><linearGradient id="linear-gradient-4" x1="94.99" y1="73.81" x2="98.69" y2="78.88" gradientUnits="userSpaceOnUse"><stop offset="0" stop-color="#5b7000"/><stop offset="0.52" stop-color="#83a200"/><stop offset="1" stop-color="#a4cc00"/></linearGradient><linearGradient id="linear-gradient-5" x1="109.48" y1="97.81" x2="122.15" y2="115.63" gradientUnits="userSpaceOnUse"><stop offset="0" stop-color="#445400"/><stop offset="1" stop-color="#3c4a00"/></linearGradient><radialGradient id="radial-gradient" cx="22.67" cy="72.78" r="11.83" gradientUnits="userSpaceOnUse"><stop offset="0" stop-color="#b8e600"/><stop offset="0.18" stop-color="#b4e100"/><stop offset="0.39" stop-color="#a8d200"/><stop offset="0.62" stop-color="#95ba00"/><stop offset="0.87" stop-color="#7a9800"/><stop offset="1" stop-color="#698200"/></radialGradient><radialGradient id="radial-gradient-2" cx="22.71" cy="72.05" r="8.74" gradientUnits="userSpaceOnUse"><stop offset="0" stop-color="#b8e600"/><stop offset="1" stop-color="#b8e600"/></radialGradient><radialGradient id="radial-gradient-3" cx="98.41" cy="31.95" r="11.83" xlink:href="#radial-gradient"/><radialGradient id="radial-gradient-4" cx="98.42" cy="31.43" r="8.74" xlink:href="#radial-gradient-2"/><radialGradient id="radial-gradient-5" cx="114.69" cy="23.78" r="9.9" xlink:href="#radial-gradient"/><radialGradient id="radial-gradient-6" cx="114.5" cy="23.37" r="7.39" xlink:href="#radial-gradient-2"/><radialGradient id="radial-gradient-7" cx="40.25" cy="62.46" r="12.95" xlink:href="#radial-gradient"/><radialGradient id="radial-gradient-8" cx="39.84" cy="61.44" r="8.96" xlink:href="#radial-gradient-2"/><radialGradient id="radial-gradient-9" cx="79.07" cy="39.97" r="12.95" xlink:href="#radial-gradient"/><radialGradient id="radial-gradient-10" cx="78.61" cy="38.82" r="8.96" xlink:href="#radial-gradient-2"/><radialGradient id="radial-gradient-11" cx="58.4" cy="50.79" r="14.65" xlink:href="#radial-gradient"/><radialGradient id="radial-gradient-12" cx="58.22" cy="49.65" r="9.82" xlink:href="#radial-gradient-2"/><linearGradient id="linear-gradient-6" x1="87.92" y1="67.27" x2="76.41" y2="50.01" xlink:href="#linear-gradient-3"/><linearGradient id="linear-gradient-7" x1="108.89" y1="126.31" x2="105.22" y2="117.8" gradientUnits="userSpaceOnUse"><stop offset="0" stop-color="#698200"/><stop offset="0.21" stop-color="#83a200"/><stop offset="0.51" stop-color="#a4cc00"/></linearGradient><linearGradient id="linear-gradient-8" x1="103.49" y1="113.8" x2="100.33" y2="106.51" gradientUnits="userSpaceOnUse"><stop offset="0" stop-color="#a4cc00"/><stop offset="1" stop-color="#cf0"/></linearGradient><linearGradient id="linear-gradient-9" x1="25.2" y1="92" x2="23.59" y2="88.93" gradientUnits="userSpaceOnUse"><stop offset="0" stop-color="#a8d100"/><stop offset="1" stop-color="#a6cf00"/></linearGradient><linearGradient id="linear-gradient-10" x1="44.93" y1="83.46" x2="42.23" y2="79.02" xlink:href="#linear-gradient-9"/><linearGradient id="linear-gradient-11" x1="64.51" y1="71.68" x2="61.58" y2="66.86" xlink:href="#linear-gradient-9"/><linearGradient id="linear-gradient-12" x1="82.97" y1="57.7" x2="79.85" y2="52.54" xlink:href="#linear-gradient-9"/><linearGradient id="linear-gradient-13" x1="101.02" y1="45.21" x2="98.33" y2="40.77" xlink:href="#linear-gradient-9"/><linearGradient id="linear-gradient-14" x1="116.56" y1="34.72" x2="114.62" y2="31.51" xlink:href="#linear-gradient-9"/><linearGradient id="linear-gradient-15" x1="140.71" y1="14.23" x2="135.47" y2="4.77" xlink:href="#linear-gradient-3"/></defs><g id="Layer_2" data-name="Layer 2"><g id="Layer_1-2" data-name="Layer 1"><path class="cls-1" d="M162.09,17.57s-1.86,2.69-2.44,8-1.11,13.69-4.28,20.2-12.29,15.58-12.29,15.58-16.38-11.64-8.25-28.32a23,23,0,0,1,16-11.77,37.11,37.11,0,0,0,5.58-1.18c2.12-.74,4.39-2.1,4.79-2.91S162.09,17.57,162.09,17.57Z"/><path class="cls-2" d="M158.24,20.37S132.87,36.09,142.1,60.09C142.1,60.09,133.72,38.74,158.24,20.37Z"/><path class="cls-3" d="M114.42,72.86a16.81,16.81,0,0,1-1.66-6.75h0c.83-11.35,10.15-19.55,21.29-27.69h0c11.15-8.14,24.2-16.26,32.8-27.21h0c3.05-3.87,4.24-6.49,4.22-8h0c0-1.58-1.18-2.16-3.67-2.21h0c-3.7,0-9.48,1.7-14.29,3.42h0c-4.82,1.72-8.67,3.44-8.68,3.44h0l-1.14-2.34S159.49,0,167.4,0h0a6.55,6.55,0,0,1,3.31.69h0a2.81,2.81,0,0,1,1.4,2.56h0c0,2-1.35,4.65-4.44,8.6h0c-8.76,11.15-21.91,19.29-33,27.41h0c-11.13,8.11-20.11,16.17-20.86,26.88h0a13.52,13.52,0,0,0,.19,1.94h0a15.87,15.87,0,0,0,1.36,4.32h0c1.57,3.11,4.55,6.17,10.79,6.19h0a25.1,25.1,0,0,0,5.34-.64h0c9.82-2.23,13-8.07,13-13.39h0c0-4.43-2.3-8.49-4.89-9.62h0a6.92,6.92,0,0,0-2.85-.58h0c-4.68,0-10.08,4.08-10.09,9.76h0a10.48,10.48,0,0,0,1,4.33h0c1.1,2.38,2.42,3.13,3.76,3.14h0a6.32,6.32,0,0,0,4.4-2.46h0a7.76,7.76,0,0,0,2.1-4.62h0a2,2,0,0,0-1.16-2h0l.44-.94a3,3,0,0,1,1.76,2.94h0c-.07,3.43-3.68,8-7.54,8.13h0c-1.8,0-3.55-1.16-4.7-3.76h0a11.53,11.53,0,0,1-1.09-4.76h0c0-6.38,5.91-10.79,11.13-10.8h0A7.88,7.88,0,0,1,140,54h0c3.13,1.44,5.5,5.8,5.51,10.57h0c0,5.76-3.63,12.15-13.82,14.4h0a25.62,25.62,0,0,1-5.56.67h0c-6.58,0-10-3.41-11.67-6.77Z"/><path class="cls-4" d="M140.43,7.81s-19.32,11-28.12,14.38S80.11,34,69.38,42.37,44,59.33,34.81,63,14.42,75,1.54,72.85c0,0-3.68,2.81.34,4a39.66,39.66,0,0,1,12.31,5.58c3.93,2.8,20.69,6.64,36.58-1s41.52-21.9,56.34-33.07S132.58,22.87,136.48,19,146.45,4.47,140.43,7.81Z"/><path class="cls-5" d="M93.21,33.85c-8.14,3.49-16.51,7.66-21.28,11.4-11.1,8.64-25.75,17.28-35.59,21.19-3.69,1.45-8.19,4-13.28,6.27A52.25,52.25,0,0,1,12.73,76.2a37.12,37.12,0,0,1,3.87,2.39,16,16,0,0,0,4.63,1.68,41.45,41.45,0,0,0,9.41,1,42.7,42.7,0,0,0,18.34-4c15.63-7.46,41.25-21.78,55.62-32.65a137,137,0,0,0,18.22-16.9c4.5-4.91,7.79-9,10.08-11.42l-1.27.68c-6,3.2-13,6.81-17.81,8.68C109.34,27.41,101.38,30.33,93.21,33.85Z"/><path class="cls-6" d="M38.36,73.8a9.71,9.71,0,1,1-9.71-9.71A9.71,9.71,0,0,1,38.36,73.8Z"/><path class="cls-7" d="M21.8,75.61a9.67,9.67,0,0,1,11.85-9.44,9,9,0,0,0-10.3,14.68A9.6,9.6,0,0,1,21.8,75.61Z"/><path class="cls-8" d="M20.14,73.17l2.09-.43a10.65,10.65,0,0,1,.48-1.22l-2.4.49A11.17,11.17,0,0,0,20.14,73.17Zm9.19-7-6.51,1.34A9.18,9.18,0,0,0,21,70.1l3-.62a9.71,9.71,0,0,1,5.35-3.32Z"/><path class="cls-9" d="M114.09,33a9.71,9.71,0,1,1-9.7-9.71A9.7,9.7,0,0,1,114.09,33Z"/><path class="cls-10" d="M97.51,35a9.69,9.69,0,0,1,9.69-9.69,10.29,10.29,0,0,1,2.16.25A9,9,0,0,0,99.05,40.23,9.67,9.67,0,0,1,97.51,35Z"/><path class="cls-8" d="M95.85,32.55l2.09-.43a10.65,10.65,0,0,1,.48-1.22l-2.4.5A10.61,10.61,0,0,0,95.85,32.55Zm9.19-7-6.51,1.33a9.18,9.18,0,0,0-1.86,2.62l3-.62A9.71,9.71,0,0,1,105,25.54Z"/><path class="cls-11" d="M127.82,24.63a8.13,8.13,0,1,1-8.12-8.13A8.13,8.13,0,0,1,127.82,24.63Z"/><path class="cls-12" d="M113.74,26.38a8.2,8.2,0,0,1,8.2-8.2,8.48,8.48,0,0,1,1.83.21,7.61,7.61,0,0,0-8.72,12.42A8.11,8.11,0,0,1,113.74,26.38Z"/><path class="cls-8" d="M112.34,24.31,114.1,24a7.13,7.13,0,0,1,.41-1l-2,.42A6.13,6.13,0,0,0,112.34,24.31Zm7.77-5.94L114.6,19.5A7.58,7.58,0,0,0,113,21.72l2.55-.53a8.17,8.17,0,0,1,4.53-2.81Z"/><path class="cls-13" d="M57.44,63.59A10.64,10.64,0,1,1,46.8,53,10.64,10.64,0,0,1,57.44,63.59Z"/><path class="cls-14" d="M38.91,65.09a9.94,9.94,0,0,1,9.94-9.94,10,10,0,0,1,2.21.26,9.23,9.23,0,0,0-10.57,15A9.86,9.86,0,0,1,38.91,65.09Z"/><path class="cls-8" d="M37.21,62.58l2.14-.44a8.88,8.88,0,0,1,.49-1.24l-2.46.5A9.31,9.31,0,0,0,37.21,62.58Zm9.42-7.2L40,56.75a9.15,9.15,0,0,0-1.91,2.69l3.09-.63a9.91,9.91,0,0,1,5.49-3.41Z"/><path class="cls-15" d="M96.26,41.09A10.64,10.64,0,1,1,85.62,30.46,10.64,10.64,0,0,1,96.26,41.09Z"/><path class="cls-16" d="M77.68,42.48a9.94,9.94,0,0,1,9.94-9.94,10,10,0,0,1,2.21.25A9.23,9.23,0,0,0,79.26,47.85,9.86,9.86,0,0,1,77.68,42.48Z"/><path class="cls-8" d="M76,40l2.14-.44a9,9,0,0,1,.49-1.25l-2.46.51A9.06,9.06,0,0,0,76,40Zm9.42-7.2-6.67,1.37a9.15,9.15,0,0,0-1.91,2.69l3.09-.64a9.91,9.91,0,0,1,5.49-3.41Z"/><path class="cls-17" d="M77.84,52.06a12,12,0,1,1-12-12A12,12,0,0,1,77.84,52.06Z"/><path class="cls-18" d="M57.2,53.66a10.9,10.9,0,0,1,10.9-10.9,10.75,10.75,0,0,1,2.42.28,10.11,10.11,0,0,0-11.58,16.5A10.85,10.85,0,0,1,57.2,53.66Z"/><path class="cls-8" d="M55.34,50.91l2.35-.48a10.23,10.23,0,0,1,.53-1.37l-2.69.55A11,11,0,0,0,55.34,50.91ZM65.67,43l-7.32,1.51a10.22,10.22,0,0,0-2.09,2.94l3.39-.69a10.9,10.9,0,0,1,6-3.74Z"/><path class="cls-19" d="M140.6,8.05s-18.36,12.5-26.85,16.65S82.64,39.12,72.63,48.35s-23.85,19-32.75,23.38S20.55,85.39,7.54,84.31c0,0-3.44,3.1.65,3.9a39.59,39.59,0,0,1,12.73,4.56c4.15,2.46,21.17,4.91,36.38-4s39.58-25.25,53.43-37.61S134,23.71,137.58,19.5,146.32,4.23,140.6,8.05Z"/><path class="cls-20" d="M8.3,88.21q1.88.38,3.84.9c11-1,20-8.67,27.85-12.55,8.9-4.4,22.74-14.16,32.74-23.39s32.64-19.49,41.13-23.64S140.7,12.88,140.7,12.88a5.34,5.34,0,0,1,1.41-.72c1.56-3.54,1.9-6.32-1.41-4.11,0,0-18.35,12.5-26.84,16.65S82.74,39.12,72.73,48.35,48.89,67.33,40,71.73,20.65,85.39,7.64,84.31C7.64,84.31,4.2,87.41,8.3,88.21Z"/><path class="cls-21" d="M8.31,85c13,1.08,23.45-8.18,32.35-12.58S63.4,58.24,73.4,49,106,29.52,114.53,25.37,141.37,8.72,141.37,8.72a3.59,3.59,0,0,1,1.86-.78c-.14-.85-.88-1-2.53.11,0,0-18.35,12.5-26.84,16.65S82.74,39.12,72.73,48.35,48.89,67.33,40,71.73,20.65,85.39,7.64,84.31c0,0-2.62,2.37-.56,3.5C6.52,86.61,8.31,85,8.31,85Z"/><path class="cls-22" d="M19.29,89.18s5.48-1.06,7.34-2.92c0,0-1.81,2.77-1.1,5C25.53,91.3,21.5,89.18,19.29,89.18Z"/><path class="cls-23" d="M37.91,80.3l7.76-4A8.58,8.58,0,0,0,45,83.38,9.68,9.68,0,0,0,37.91,80.3Z"/><path class="cls-24" d="M57.91,68.43s5.81-3.07,6.4-4.68c0,0-1.93,5.81.17,7.91C64.48,71.66,60.17,68.43,57.91,68.43Z"/><path class="cls-25" d="M76,54.6s3.88-4.41,7.05-5.22c0,0-1.61,5.49.7,7.81C83.74,57.19,78.74,53.69,76,54.6Z"/><path class="cls-26" d="M94.18,42.12a49.67,49.67,0,0,1,7.31-4.31s-2.47,5-.86,7.59C100.63,45.4,96.92,41.8,94.18,42.12Z"/><path class="cls-27" d="M111.34,32.54s4.82-1.59,6.08-2.85c0,0-2,3.28-1.4,5.33C116,35,113,32.54,111.34,32.54Z"/><path class="cls-28" d="M147.18,6.32l-1.75-2a2.63,2.63,0,0,0-4.55,2.26,6.13,6.13,0,0,0-3.82,1.28h0s-4.32,2.34-8.05,1.4a6.77,6.77,0,0,0,6.44,1.7,1.92,1.92,0,0,0,0,.24,13,13,0,0,0-4.56,5s2.74,2.21,7.54-.65a2.89,2.89,0,0,0,.51.11c-.54,1.14-1.45,3.56-.44,5.21,0,0,1-4.1,3.57-6.11h0a6.8,6.8,0,0,0,2-4.28,2.63,2.63,0,0,0,3.06-4.15Z"/></g></g></svg>