<svg xmlns="http://www.w3.org/2000/svg" xmlns:xlink="http://www.w3.org/1999/xlink" viewBox="0 0 97.5 92.98"><defs><style>.cls-1{fill:url(#radial-gradient);}.cls-2{fill:url(#radial-gradient-2);}.cls-3{fill:url(#radial-gradient-3);}.cls-4{fill:url(#linear-gradient);}.cls-5{fill:url(#radial-gradient-4);}.cls-6{fill:url(#linear-gradient-2);}.cls-7{fill:url(#linear-gradient-3);}.cls-8{fill:url(#linear-gradient-4);}.cls-9{fill:url(#linear-gradient-5);}.cls-10{fill:url(#linear-gradient-6);}</style><radialGradient id="radial-gradient" cx="-10.14" cy="12.67" r="52.04" gradientTransform="matrix(0.99, -0.12, 0.13, 1.09, 29.26, 12.87)" gradientUnits="userSpaceOnUse"><stop offset="0" stop-color="#ff823b"/><stop offset="0.15" stop-color="#fe7d39"/><stop offset="0.33" stop-color="#fa6e32"/><stop offset="0.53" stop-color="#f45527"/><stop offset="0.75" stop-color="#eb3317"/><stop offset="0.97" stop-color="#e00803"/><stop offset="1" stop-color="#de0000"/></radialGradient><radialGradient id="radial-gradient-2" cx="-15.15" cy="16.4" r="34.21" gradientTransform="translate(28.58 6.12) rotate(-7.03)" gradientUnits="userSpaceOnUse"><stop offset="0" stop-color="#ffc4a3"/><stop offset="0.16" stop-color="#ffc19e"/><stop offset="0.35" stop-color="#feb78f"/><stop offset="0.57" stop-color="#fca776"/><stop offset="0.79" stop-color="#fa9055"/><stop offset="1" stop-color="#f7762d"/></radialGradient><radialGradient id="radial-gradient-3" cx="8.54" cy="15.37" r="29.92" gradientTransform="translate(28.58 6.12) rotate(-7.03)" gradientUnits="userSpaceOnUse"><stop offset="0" stop-color="#ffb287"/><stop offset="0.16" stop-color="#ffb58c"/><stop offset="0.35" stop-color="#ffbf9b"/><stop offset="0.56" stop-color="#ffcfb4"/><stop offset="0.78" stop-color="#ffe4d5"/><stop offset="1" stop-color="#fff"/></radialGradient><linearGradient id="linear-gradient" x1="18.53" y1="27.6" x2="18.53" y2="83.73" gradientTransform="translate(28.58 6.12) rotate(-7.03)" gradientUnits="userSpaceOnUse"><stop offset="0" stop-color="#e00000"/><stop offset="0.4" stop-color="#db0000"/><stop offset="0.88" stop-color="#c00"/><stop offset="1" stop-color="#c70000"/></linearGradient><radialGradient id="radial-gradient-4" cx="64.99" cy="582.34" r="21.23" gradientTransform="matrix(1, 0.04, -0.01, 0.33, -5.57, -184.03)" gradientUnits="userSpaceOnUse"><stop offset="0" stop-color="#c20000"/><stop offset="0.19" stop-color="#c50500"/><stop offset="0.43" stop-color="#cc1400"/><stop offset="0.69" stop-color="#d92c00"/><stop offset="0.96" stop-color="#ea4e00"/><stop offset="1" stop-color="#ed5400"/></radialGradient><linearGradient id="linear-gradient-2" x1="15.82" y1="18.15" x2="88.08" y2="18.15" gradientUnits="userSpaceOnUse"><stop offset="0" stop-color="#e00000"/><stop offset="0.53" stop-color="#db0000"/><stop offset="1" stop-color="#d10000"/></linearGradient><linearGradient id="linear-gradient-3" x1="15" y1="16" x2="87.25" y2="16" gradientUnits="userSpaceOnUse"><stop offset="0" stop-color="#6d9931"/><stop offset="1" stop-color="#577a27"/></linearGradient><linearGradient id="linear-gradient-4" x1="56.19" y1="16.45" x2="52.46" y2="24.78" gradientUnits="userSpaceOnUse"><stop offset="0" stop-color="#698200"/><stop offset="0.21" stop-color="#83a200"/><stop offset="0.51" stop-color="#a4cc00"/><stop offset="1" stop-color="#b8e600"/></linearGradient><linearGradient id="linear-gradient-5" x1="55.28" y1="7.48" x2="52.06" y2="6.4" gradientUnits="userSpaceOnUse"><stop offset="0" stop-color="#576b00"/><stop offset="0.26" stop-color="#7d9b00"/><stop offset="0.51" stop-color="#9ec500"/><stop offset="1" stop-color="#7a9900"/></linearGradient><linearGradient id="linear-gradient-6" x1="101.64" y1="37.24" x2="97.6" y2="36.18" gradientTransform="translate(-35.97 -51.31) rotate(9.21)" gradientUnits="userSpaceOnUse"><stop offset="0.51" stop-color="#9ec500"/><stop offset="1" stop-color="#7a9900"/></linearGradient></defs><g id="Layer_2" data-name="Layer 2"><g id="Layer_1-2" data-name="Layer 1"><path class="cls-1" d="M97.19,42.55c3,24.32-16.26,46.72-43,50S3.31,78.82.31,54.49s16.25-46.71,43-50S94.19,18.22,97.19,42.55Z"/><path class="cls-2" d="M60.37,8.86l.49,0a48.53,48.53,0,0,0-17.38-1C19,10.87,1.3,31.4,4.05,53.7A37.5,37.5,0,0,0,9,68.08C5.71,39.23,28.61,12.78,60.37,8.86Z"/><path class="cls-3" d="M46.11,7.74,20.35,17.15A44,44,0,0,0,10.6,27.4l21.79-8A61.24,61.24,0,0,1,47.6,11.8ZM5.5,37.91l12.8-4.68a55,55,0,0,1,3.8-4.73L6.94,34A37.39,37.39,0,0,0,5.5,37.91Z"/><path class="cls-4" d="M73.88,9.92A41.31,41.31,0,0,1,84.11,32.34c3,24.33-16.25,46.72-43,50a51.72,51.72,0,0,1-30.56-5.45C20.64,88.3,36.85,94.7,54.18,92.57c26.76-3.3,46-25.7,43-50C95.43,28.3,86.42,16.55,73.88,9.92Z"/><path class="cls-5" d="M72,13.69c-.17,3.9-9.81,6.65-21.52,6.13s-21.08-4.1-20.91-8S39.38,5.16,51.1,5.68,72.17,9.78,72,13.69Z"/><path class="cls-6" d="M67.23,17.7C74,16,80.44,19.39,80.44,19.39l7.64,4.14-4-4.66C78.89,16.28,73.84,15.12,71,15.12A45.35,45.35,0,0,1,59.85,13.3c-2.59-.9.39-1.55,2.33-2.33s5.68-2.1,6.56-3A2.27,2.27,0,0,0,69,7.64c-.83-.33-1.68-.63-2.53-.92-2,1-4.82,2.83-6.88,2.83-2.84,0-8.93,1-9.71-.91S53.51,5,53.51,5l4.67.31a4.07,4.07,0,0,0-1.27-.8,53.91,53.91,0,0,0-7-.45,34.24,34.24,0,0,0-2.62,2.3c-1.54,1.54,0,3.43,0,3.43a29.05,29.05,0,0,0-10-2.11c-2,0-4.11-.14-5.91-.3-.63.23-1.24.48-1.85.73l1.21.53s4.39.5,8,.5S45.48,12,45.48,12s-5.44,2.46-14.24.9a21,21,0,0,0-15.42,3.63s9.59-4,14.23-1.9,18.67.09,18.67.09c0,4.27-6.09,5.95-10.62,8.93s-7.9,8.55-7.9,8.55L32.4,30l13.34-7.38s8.54-5.19,8.54-3.37,2.85,4.66,8.16,5.44,8.68,6.08,8.68,6.08-2.2-7.51-3.89-7.51-8.41-1.81-8.41-1.81l-1.36-5.11S60.5,19.39,67.23,17.7Z"/><path class="cls-7" d="M47.89,14s-14,2-18.67-.08S15,15.81,15,15.81a21,21,0,0,1,15.41-3.63c8.8,1.55,14.24-.91,14.24-.91s-3.1-2.84-6.73-2.84-8-.5-8-.5L25.75,6.1A81.53,81.53,0,0,0,36.45,7a29.17,29.17,0,0,1,10,2.1s-1.53-1.88,0-3.42a39.74,39.74,0,0,1,3.76-3.18s5.55.54,7.13,2.12l-4.67-.31S48.28,6,49.05,7.91s6.87.9,9.72.9S66,5.32,67.44,5.32,70.68.53,70.68.53,68.8,6.37,67.91,7.26s-4.61,2.2-6.55,3S56.44,11.66,59,12.57a45.19,45.19,0,0,0,11.13,1.81c2.85,0,7.9,1.17,13.08,3.76l4,4.66-7.63-4.14S73.14,15.29,66.41,17s-9.78-1.36-9.78-1.36L58,20.73s6.73,1.81,8.42,1.81,3.88,7.51,3.88,7.51S66.92,24.74,61.61,24s-8.15-3.63-8.15-5.44-8.55,3.37-8.55,3.37L31.57,29.28l-2.2,2.2s3.37-5.57,7.9-8.55S47.89,18.27,47.89,14Z"/><path class="cls-8" d="M82.65,18.77a40.42,40.42,0,0,0-4.71-2,18.58,18.58,0,0,1,2.12.89l3.11,1.69ZM58.71,13.34c-.74-.33-1.47-.45-1.64-1.6a1.47,1.47,0,0,1,.75-1.21,5.68,5.68,0,0,1,1-.48c.71-.29,1.54-.55,2.2-.81C62.93,8.5,66.8,7,67.25,6.46a1.32,1.32,0,0,0,.21-.32h0a17.59,17.59,0,0,0-3.36,1.64,12.83,12.83,0,0,1-5.31,1.86c-1.38,0-3.74.27-5.83.27-1.92-.08-3.85,0-4.76-1.77A2.21,2.21,0,0,1,48,7.32c.09-1.59,1.33-2.39,2.3-3,.55-.33,1.08-.59,1.46-.77-.54-.09-1-.15-1.29-.18a36,36,0,0,0-3.36,2.86,1.26,1.26,0,0,0-.41.91A2.11,2.11,0,0,0,47,8a1.86,1.86,0,0,0,.24.37,1,1,0,0,1,0,1.17,1,1,0,0,1-1.13.3,30.1,30.1,0,0,0-3-1l-.25-.07a14.28,14.28,0,0,1,2.47,1.71,1,1,0,0,1,.3.85A1,1,0,0,1,45,12a23.15,23.15,0,0,1-8.9,1.51,34.18,34.18,0,0,1-5.9-.53l-.75-.12.13.06c1.3.61,3.94.89,6.73.88a93.57,93.57,0,0,0,11.4-.87h.14a.93.93,0,0,1,.62.23,1,1,0,0,1,.32.71c0,2.66-1.9,4.4-4,5.75s-4.83,2.54-7,4a20.49,20.49,0,0,0-3.48,3L44.42,21S46,20,47.8,19.06s3.73-1.93,5.14-2a1.57,1.57,0,0,1,.93.27,1.3,1.3,0,0,1,.53,1.06c-.12.92,2.29,3.84,7.35,4.51a12.49,12.49,0,0,1,6,2.86,8.84,8.84,0,0,0-1.44-2.41c-2.11-.06-8.54-1.84-8.61-1.84a1,1,0,0,1-.67-.67l-1.35-5.12a.94.94,0,0,1,.44-1.06,1,1,0,0,1,1.14.15,2.88,2.88,0,0,0,.25.2,5.38,5.38,0,0,0,.93.55,9.28,9.28,0,0,0,4.06.84,14.88,14.88,0,0,0,3.64-.48,17.11,17.11,0,0,1,4.19-.5,22.78,22.78,0,0,1,6,.87,23.16,23.16,0,0,0-6.2-1.09A46.68,46.68,0,0,1,58.71,13.34Z"/><path class="cls-9" d="M50.34,12.59s3.21-5.9,3.21-8.69c0,0-1.55-2,0-3.52,0,0,4.55,2.28,6,.83a3,3,0,0,1-1.87,3s-3.33,4.81-2.89,9C54.79,13.21,52,15.69,50.34,12.59Z"/><path class="cls-10" d="M59.56,1.38c-.07.42-1.47.54-3.13.27s-3-.83-2.89-1.24S55-.12,56.67.15,59.62,1,59.56,1.38Z"/></g></g></svg>